<svg width="1600" height="1200" viewBox="0 0 1600 1200" fill="none" xmlns="http://www.w3.org/2000/svg">
  <defs>
    <linearGradient id="base" x1="0" y1="0" x2="1600" y2="1200" gradientUnits="userSpaceOnUse">
      <stop offset="0%" stop-color="#1C154E"/>
      <stop offset="18%" stop-color="#2E3192"/>
      <stop offset="36%" stop-color="#5237B8"/>
      <stop offset="54%" stop-color="#C84D8E"/>
      <stop offset="70%" stop-color="#29ABE2"/>
      <stop offset="84%" stop-color="#7E7FBD"/>
      <stop offset="100%" stop-color="#221A63"/>
    </linearGradient>
    <radialGradient id="violet" cx="0" cy="0" r="1" gradientUnits="userSpaceOnUse" gradientTransform="translate(410 320) rotate(90) scale(360 460)">
      <stop offset="0%" stop-color="#7E7FBD" stop-opacity="0.95"/>
      <stop offset="55%" stop-color="#7E7FBD" stop-opacity="0.42"/>
      <stop offset="100%" stop-color="#7E7FBD" stop-opacity="0"/>
    </radialGradient>
    <radialGradient id="electric" cx="0" cy="0" r="1" gradientUnits="userSpaceOnUse" gradientTransform="translate(960 420) rotate(90) scale(400 500)">
      <stop offset="0%" stop-color="#76F0FF" stop-opacity="0.82"/>
      <stop offset="52%" stop-color="#29ABE2" stop-opacity="0.32"/>
      <stop offset="100%" stop-color="#29ABE2" stop-opacity="0"/>
    </radialGradient>
    <radialGradient id="rose" cx="0" cy="0" r="1" gradientUnits="userSpaceOnUse" gradientTransform="translate(730 860) rotate(90) scale(340 420)">
      <stop offset="0%" stop-color="#FF79C7" stop-opacity="0.72"/>
      <stop offset="58%" stop-color="#FF79C7" stop-opacity="0.26"/>
      <stop offset="100%" stop-color="#FF7BC8" stop-opacity="0"/>
    </radialGradient>
    <radialGradient id="cyan" cx="0" cy="0" r="1" gradientUnits="userSpaceOnUse" gradientTransform="translate(1120 250) rotate(90) scale(420 520)">
      <stop offset="0%" stop-color="#5BD7FF" stop-opacity="0.88"/>
      <stop offset="45%" stop-color="#29ABE2" stop-opacity="0.5"/>
      <stop offset="72%" stop-color="#6D8CFF" stop-opacity="0.26"/>
      <stop offset="100%" stop-color="#29ABE2" stop-opacity="0"/>
    </radialGradient>
    <radialGradient id="lilac" cx="0" cy="0" r="1" gradientUnits="userSpaceOnUse" gradientTransform="translate(1230 860) rotate(90) scale(320 420)">
      <stop offset="0%" stop-color="#C8CCFF" stop-opacity="0.72"/>
      <stop offset="60%" stop-color="#C8CCFF" stop-opacity="0.18"/>
      <stop offset="100%" stop-color="#C8CCFF" stop-opacity="0"/>
    </radialGradient>
    <radialGradient id="softWhite" cx="0" cy="0" r="1" gradientUnits="userSpaceOnUse" gradientTransform="translate(210 860) rotate(90) scale(260 320)">
      <stop offset="0%" stop-color="#F2F2F2" stop-opacity="0.32"/>
      <stop offset="100%" stop-color="#F2F2F2" stop-opacity="0"/>
    </radialGradient>
    <radialGradient id="peach" cx="0" cy="0" r="1" gradientUnits="userSpaceOnUse" gradientTransform="translate(1260 920) rotate(90) scale(280 360)">
      <stop offset="0%" stop-color="#FFB67A" stop-opacity="0.34"/>
      <stop offset="60%" stop-color="#FFB67A" stop-opacity="0.12"/>
      <stop offset="100%" stop-color="#FFB67A" stop-opacity="0"/>
    </radialGradient>
    <filter id="blurA" x="0" y="0" width="1600" height="1200" filterUnits="userSpaceOnUse">
      <feGaussianBlur stdDeviation="70"/>
    </filter>
    <filter id="blurB" x="0" y="0" width="1600" height="1200" filterUnits="userSpaceOnUse">
      <feGaussianBlur stdDeviation="44"/>
    </filter>
  </defs>
  <rect width="1600" height="1200" fill="url(#base)"/>
  <g filter="url(#blurA)" opacity="0.95">
    <circle cx="410" cy="320" r="240" fill="url(#violet)"/>
    <circle cx="1120" cy="250" r="320" fill="url(#cyan)"/>
    <circle cx="1230" cy="860" r="250" fill="url(#lilac)"/>
    <circle cx="210" cy="860" r="220" fill="url(#softWhite)"/>
    <circle cx="820" cy="160" r="170" fill="#C8CCFF" fill-opacity="0.22"/>
    <circle cx="730" cy="860" r="240" fill="url(#rose)"/>
    <circle cx="980" cy="560" r="220" fill="url(#electric)"/>
    <circle cx="1360" cy="940" r="170" fill="url(#peach)"/>
  </g>
  <g filter="url(#blurB)" opacity="0.65">
    <path d="M120 190C270 70 450 80 560 210C670 340 640 520 510 620C390 710 220 690 120 560C30 440 20 280 120 190Z" fill="#7E7FBD" fill-opacity="0.34"/>
    <path d="M1050 160C1180 40 1400 70 1490 220C1580 370 1510 530 1350 610C1180 690 1010 620 950 480C890 340 920 240 1050 160Z" fill="#29ABE2" fill-opacity="0.36"/>
    <path d="M960 830C1070 720 1260 725 1360 840C1460 960 1410 1100 1270 1160C1120 1220 980 1170 915 1050C860 950 870 900 960 830Z" fill="#C8CCFF" fill-opacity="0.24"/>
    <path d="M460 920C560 860 700 880 760 980C820 1080 760 1160 640 1180C520 1200 430 1120 410 1040C390 980 400 950 460 920Z" fill="#5BD7FF" fill-opacity="0.22"/>
    <path d="M250 420C360 340 520 350 610 450C700 550 680 700 560 760C430 830 280 790 220 680C170 590 170 470 250 420Z" fill="#FF7BC8" fill-opacity="0.24"/>
    <path d="M620 210C710 140 840 150 900 230C960 310 930 410 840 450C750 490 650 450 610 360C580 300 580 250 620 210Z" fill="#76F0FF" fill-opacity="0.18"/>
  </g>
  <g filter="url(#blurB)" opacity="0.28">
    <path d="M180 960C340 880 520 900 600 1000C680 1100 620 1180 480 1190C350 1200 250 1130 190 1050C140 990 140 980 180 960Z" fill="#FFB67A"/>
    <path d="M1120 930C1240 860 1390 870 1470 960C1540 1050 1490 1140 1360 1165C1235 1190 1120 1130 1070 1040C1035 980 1050 950 1120 930Z" fill="#7E7FBD"/>
  </g>
</svg>
