<svg id="_ÎÓÈ_1" data-name="—ÎÓÈ_1" xmlns="http://www.w3.org/2000/svg" xmlns:xlink="http://www.w3.org/1999/xlink" viewBox="0 0 416.4 269.27"><defs><style>.cls-1{fill:url(#_ÂÁ_Ï_ÌÌ_È_ËÂÌÚ_365);}.cls-2,.cls-21{opacity:0.43;}.cls-21,.cls-3{fill:#0c25ba;}.cls-4{fill:url(#_ÂÁ_Ï_ÌÌ_È_ËÂÌÚ_118);}.cls-5{fill:#f7f7f9;}.cls-6{fill:#7777d8;}.cls-7{fill:#9898ed;}.cls-8{fill:#fff;}.cls-9{fill:#757575;}.cls-10{fill:url(#_ÂÁ_Ï_ÌÌ_È_ËÂÌÚ_417);}.cls-11{fill:#001066;}.cls-12{fill:#474ab6;}.cls-13{fill:url(#_ÂÁ_Ï_ÌÌ_È_ËÂÌÚ_365-2);}.cls-14{fill:#ffd33f;}.cls-15{fill:#4a5ea5;}.cls-16{fill:url(#_ÂÁ_Ï_ÌÌ_È_ËÂÌÚ_365-3);}.cls-17{fill:#ff7364;}.cls-18{fill:#5a3b72;}.cls-19,.cls-20{fill:#9faffc;}.cls-19{opacity:0.2;}.cls-20{opacity:0;}.cls-22{fill:url(#_ÂÁ_Ï_ÌÌ_È_ËÂÌÚ_358);}.cls-23{fill:url(#_ÂÁ_Ï_ÌÌ_È_ËÂÌÚ_3029);}.cls-24{fill:#f0f0fc;}.cls-25{opacity:0.5;}.cls-26{fill:#8d98e2;}.cls-27{fill:url(#_ÂÁ_Ï_ÌÌ_È_ËÂÌÚ_365-4);}.cls-28{fill:url(#_ÂÁ_Ï_ÌÌ_È_ËÂÌÚ_40);}.cls-29{fill:url(#_ÂÁ_Ï_ÌÌ_È_ËÂÌÚ_144);}.cls-30{fill:#6732ef;}.cls-31{fill:url(#_ÂÁ_Ï_ÌÌ_È_ËÂÌÚ_365-5);}.cls-32{fill:#dcdcf9;}.cls-33{fill:#c0c0f9;}.cls-34{fill:#3cb779;}.cls-35{fill:#319a60;}.cls-36{fill:url(#_ÂÁ_Ï_ÌÌ_È_ËÂÌÚ_365-6);}.cls-37{fill:url(#_ÂÁ_Ï_ÌÌ_È_ËÂÌÚ_365-7);}.cls-38{fill:url(#_ÂÁ_Ï_ÌÌ_È_ËÂÌÚ_365-8);}.cls-39{fill:url(#_ÂÁ_Ï_ÌÌ_È_ËÂÌÚ_365-9);}.cls-40{fill:url(#_ÂÁ_Ï_ÌÌ_È_ËÂÌÚ_3);}.cls-41{fill:url(#_ÂÁ_Ï_ÌÌ_È_ËÂÌÚ_263);}.cls-42{fill:url(#_ÂÁ_Ï_ÌÌ_È_ËÂÌÚ_585);}.cls-43{fill:url(#_ÂÁ_Ï_ÌÌ_È_ËÂÌÚ_35);}.cls-44{fill:url(#_ÂÁ_Ï_ÌÌ_È_ËÂÌÚ_22);}.cls-45{fill:#36399f;}.cls-46{fill:url(#_ÂÁ_Ï_ÌÌ_È_ËÂÌÚ_365-10);}.cls-47{fill:url(#_ÂÁ_Ï_ÌÌ_È_ËÂÌÚ_365-11);}.cls-48{fill:url(#_ÂÁ_Ï_ÌÌ_È_ËÂÌÚ_365-12);}.cls-49{fill:url(#_ÂÁ_Ï_ÌÌ_È_ËÂÌÚ_365-13);}.cls-50{fill:url(#_ÂÁ_Ï_ÌÌ_È_ËÂÌÚ_365-14);}.cls-51{fill:url(#_ÂÁ_Ï_ÌÌ_È_ËÂÌÚ_634);}.cls-52{fill:url(#_ÂÁ_Ï_ÌÌ_È_ËÂÌÚ_634-2);}.cls-53{fill:url(#_ÂÁ_Ï_ÌÌ_È_ËÂÌÚ_634-3);}.cls-54{fill:url(#_ÂÁ_Ï_ÌÌ_È_ËÂÌÚ_634-4);}.cls-55{fill:url(#_ÂÁ_Ï_ÌÌ_È_ËÂÌÚ_3-2);}.cls-56{fill:#212d60;}.cls-57{fill:url(#_ÂÁ_Ï_ÌÌ_È_ËÂÌÚ_13);}.cls-58{fill:url(#_ÂÁ_Ï_ÌÌ_È_ËÂÌÚ_365-15);}.cls-59{fill:url(#_ÂÁ_Ï_ÌÌ_È_ËÂÌÚ_35-2);}.cls-60{fill:#232f6d;}.cls-61{fill:url(#_ÂÁ_Ï_ÌÌ_È_ËÂÌÚ_365-16);}.cls-62{fill:url(#_ÂÁ_Ï_ÌÌ_È_ËÂÌÚ_365-17);}.cls-63{fill:#fd256f;}.cls-64{fill:url(#_ÂÁ_Ï_ÌÌ_È_ËÂÌÚ_374);}.cls-65{fill:url(#_ÂÁ_Ï_ÌÌ_È_ËÂÌÚ_508);}.cls-66{fill:url(#_ÂÁ_Ï_ÌÌ_È_ËÂÌÚ_307);}.cls-67{fill:url(#_ÂÁ_Ï_ÌÌ_È_ËÂÌÚ_307-2);}.cls-68{fill:url(#_ÂÁ_Ï_ÌÌ_È_ËÂÌÚ_307-3);}.cls-69{fill:url(#_ÂÁ_Ï_ÌÌ_È_ËÂÌÚ_307-4);}.cls-70{fill:url(#_ÂÁ_Ï_ÌÌ_È_ËÂÌÚ_306);}.cls-71{fill:url(#_ÂÁ_Ï_ÌÌ_È_ËÂÌÚ_44);}.cls-72{fill:url(#_ÂÁ_Ï_ÌÌ_È_ËÂÌÚ_44-2);}.cls-73{fill:url(#_ÂÁ_Ï_ÌÌ_È_ËÂÌÚ_300);}.cls-74{fill:url(#_ÂÁ_Ï_ÌÌ_È_ËÂÌÚ_287);}.cls-75{fill:url(#_ÂÁ_Ï_ÌÌ_È_ËÂÌÚ_634-5);}.cls-76{fill:url(#_ÂÁ_Ï_ÌÌ_È_ËÂÌÚ_365-18);}.cls-77{fill:url(#_ÂÁ_Ï_ÌÌ_È_ËÂÌÚ_365-19);}.cls-78{fill:url(#_ÂÁ_Ï_ÌÌ_È_ËÂÌÚ_365-20);}</style><linearGradient id="_ÂÁ_Ï_ÌÌ_È_ËÂÌÚ_365" x1="335.56" y1="10.89" x2="357.51" y2="10.89" gradientUnits="userSpaceOnUse"><stop offset="0" stop-color="#ffd33f"/><stop offset="1" stop-color="#ff7364"/></linearGradient><linearGradient id="_ÂÁ_Ï_ÌÌ_È_ËÂÌÚ_118" x1="-10710.18" y1="244.87" x2="-10609.24" y2="244.87" gradientTransform="translate(10777.83)" gradientUnits="userSpaceOnUse"><stop offset="0.46" stop-color="#eaeaf9"/><stop offset="0.51" stop-color="#e3e3f7"/><stop offset="0.57" stop-color="#d0d0f2"/><stop offset="0.62" stop-color="#bebeed"/></linearGradient><linearGradient id="_ÂÁ_Ï_ÌÌ_È_ËÂÌÚ_417" x1="202.29" y1="231.29" x2="118.96" y2="183.17" gradientUnits="userSpaceOnUse"><stop offset="0.37" stop-color="#bebeed"/><stop offset="0.54" stop-color="#eaeaf9"/></linearGradient><linearGradient id="_ÂÁ_Ï_ÌÌ_È_ËÂÌÚ_365-2" x1="133.43" y1="225.83" x2="133.43" y2="190.89" xlink:href="#_ÂÁ_Ï_ÌÌ_È_ËÂÌÚ_365"/><linearGradient id="_ÂÁ_Ï_ÌÌ_È_ËÂÌÚ_365-3" x1="152.58" y1="199.11" x2="165.07" y2="199.11" xlink:href="#_ÂÁ_Ï_ÌÌ_È_ËÂÌÚ_365"/><linearGradient id="_ÂÁ_Ï_ÌÌ_È_ËÂÌÚ_358" x1="165.3" y1="252.84" x2="233.78" y2="252.84" gradientUnits="userSpaceOnUse"><stop offset="0.43" stop-color="#eaeaf9"/><stop offset="0.48" stop-color="#e3e3f7"/><stop offset="0.57" stop-color="#d0d0f2"/><stop offset="0.63" stop-color="#bebeed"/></linearGradient><linearGradient id="_ÂÁ_Ï_ÌÌ_È_ËÂÌÚ_3029" x1="-5939.91" y1="240.09" x2="-5921.24" y2="285.95" gradientTransform="matrix(-1, 0, 0, 1, -5690.99, 0)" gradientUnits="userSpaceOnUse"><stop offset="0.79" stop-color="#450d95"/><stop offset="0.89" stop-color="#6732ef"/></linearGradient><linearGradient id="_ÂÁ_Ï_ÌÌ_È_ËÂÌÚ_365-4" x1="-8997.83" y1="239.92" x2="-8974.54" y2="239.92" gradientTransform="matrix(-1, 0, 0, 1, -8770.5, 0)" xlink:href="#_ÂÁ_Ï_ÌÌ_È_ËÂÌÚ_365"/><linearGradient id="_ÂÁ_Ï_ÌÌ_È_ËÂÌÚ_40" x1="374.79" y1="94.45" x2="374.79" y2="145.93" gradientUnits="userSpaceOnUse"><stop offset="0" stop-color="#eaeaf9"/><stop offset="0.29" stop-color="#e3e3f7"/><stop offset="0.7" stop-color="#d0d0f2"/><stop offset="1" stop-color="#bebeed"/></linearGradient><linearGradient id="_ÂÁ_Ï_ÌÌ_È_ËÂÌÚ_144" x1="-5263" y1="156.68" x2="-5263" y2="124.07" gradientTransform="matrix(-1, 0, 0, 1, -4874.91, 0)" gradientUnits="userSpaceOnUse"><stop offset="0.13" stop-color="#6732ef"/><stop offset="0.63" stop-color="#450d95"/></linearGradient><linearGradient id="_ÂÁ_Ï_ÌÌ_È_ËÂÌÚ_365-5" x1="-5274.97" y1="162.98" x2="-5274.97" y2="140.55" gradientTransform="matrix(-1, 0, 0, 1, -4874.91, 0)" xlink:href="#_ÂÁ_Ï_ÌÌ_È_ËÂÌÚ_365"/><linearGradient id="_ÂÁ_Ï_ÌÌ_È_ËÂÌÚ_365-6" x1="335.82" y1="197.8" x2="343.77" y2="197.8" xlink:href="#_ÂÁ_Ï_ÌÌ_È_ËÂÌÚ_365"/><linearGradient id="_ÂÁ_Ï_ÌÌ_È_ËÂÌÚ_365-7" x1="335.82" y1="195" x2="335.83" y2="195" xlink:href="#_ÂÁ_Ï_ÌÌ_È_ËÂÌÚ_365"/><linearGradient id="_ÂÁ_Ï_ÌÌ_È_ËÂÌÚ_365-8" x1="348.04" y1="208.19" x2="348.04" y2="208.19" xlink:href="#_ÂÁ_Ï_ÌÌ_È_ËÂÌÚ_365"/><linearGradient id="_ÂÁ_Ï_ÌÌ_È_ËÂÌÚ_365-9" x1="348.04" y1="209.87" x2="354.9" y2="209.87" xlink:href="#_ÂÁ_Ï_ÌÌ_È_ËÂÌÚ_365"/><linearGradient id="_ÂÁ_Ï_ÌÌ_È_ËÂÌÚ_3" x1="-20.72" y1="124.09" x2="48.18" y2="124.09" gradientUnits="userSpaceOnUse"><stop offset="0.29" stop-color="#eaeaf9"/><stop offset="0.39" stop-color="#e3e3f7"/><stop offset="0.53" stop-color="#d0d0f2"/><stop offset="0.63" stop-color="#bebeed"/></linearGradient><linearGradient id="_ÂÁ_Ï_ÌÌ_È_ËÂÌÚ_263" x1="83.56" y1="142.98" x2="74.69" y2="147.97" gradientUnits="userSpaceOnUse"><stop offset="0" stop-color="#eaeaf9"/><stop offset="1" stop-color="#bebeed"/></linearGradient><linearGradient id="_ÂÁ_Ï_ÌÌ_È_ËÂÌÚ_585" x1="339.93" y1="100.57" x2="33.71" y2="100.57" gradientUnits="userSpaceOnUse"><stop offset="0.48" stop-color="#eaeaf9"/><stop offset="0.49" stop-color="#e3e5f8"/><stop offset="0.51" stop-color="#d0d5f4"/><stop offset="0.53" stop-color="#b1bdee"/><stop offset="0.56" stop-color="#879ae5"/><stop offset="0.57" stop-color="#6d86e0"/></linearGradient><linearGradient id="_ÂÁ_Ï_ÌÌ_È_ËÂÌÚ_35" x1="283.46" y1="235.22" x2="310.65" y2="235.22" gradientTransform="translate(-2.52)" xlink:href="#_ÂÁ_Ï_ÌÌ_È_ËÂÌÚ_3"/><linearGradient id="_ÂÁ_Ï_ÌÌ_È_ËÂÌÚ_22" x1="304.94" y1="209.69" x2="284.7" y2="209.69" gradientUnits="userSpaceOnUse"><stop offset="0.29" stop-color="#eaeaf9"/><stop offset="0.34" stop-color="#e3e5f8"/><stop offset="0.41" stop-color="#d0d5f4"/><stop offset="0.49" stop-color="#b1bdee"/><stop offset="0.58" stop-color="#879ae5"/><stop offset="0.63" stop-color="#6d86e0"/></linearGradient><linearGradient id="_ÂÁ_Ï_ÌÌ_È_ËÂÌÚ_365-10" x1="285.8" y1="230.01" x2="285.8" y2="246.71" xlink:href="#_ÂÁ_Ï_ÌÌ_È_ËÂÌÚ_365"/><linearGradient id="_ÂÁ_Ï_ÌÌ_È_ËÂÌÚ_365-11" x1="287.62" y1="230.01" x2="287.62" y2="246.71" xlink:href="#_ÂÁ_Ï_ÌÌ_È_ËÂÌÚ_365"/><linearGradient id="_ÂÁ_Ï_ÌÌ_È_ËÂÌÚ_365-12" x1="289.47" y1="230.01" x2="289.47" y2="246.71" xlink:href="#_ÂÁ_Ï_ÌÌ_È_ËÂÌÚ_365"/><linearGradient id="_ÂÁ_Ï_ÌÌ_È_ËÂÌÚ_365-13" x1="5703.42" y1="179.14" x2="5706.01" y2="179.14" gradientTransform="matrix(-1, 0, 0, 1, 5831.73, 0)" xlink:href="#_ÂÁ_Ï_ÌÌ_È_ËÂÌÚ_365"/><linearGradient id="_ÂÁ_Ï_ÌÌ_È_ËÂÌÚ_365-14" x1="232.23" y1="184.76" x2="269.79" y2="184.76" xlink:href="#_ÂÁ_Ï_ÌÌ_È_ËÂÌÚ_365"/><linearGradient id="_ÂÁ_Ï_ÌÌ_È_ËÂÌÚ_634" x1="4318.66" y1="1275.3" x2="4318.66" y2="1239.76" gradientTransform="matrix(1.5, -0.29, 0.87, 0.5, -7441.1, 742.43)" xlink:href="#_ÂÁ_Ï_ÌÌ_È_ËÂÌÚ_365"/><linearGradient id="_ÂÁ_Ï_ÌÌ_È_ËÂÌÚ_634-2" x1="4353.24" y1="1255.46" x2="4353.24" y2="1225.61" gradientTransform="matrix(1.5, -0.29, 0.87, 0.5, -7441.1, 742.43)" xlink:href="#_ÂÁ_Ï_ÌÌ_È_ËÂÌÚ_365"/><linearGradient id="_ÂÁ_Ï_ÌÌ_È_ËÂÌÚ_634-3" x1="4337.32" y1="1264.47" x2="4337.32" y2="1241.44" gradientTransform="matrix(1.5, -0.29, 0.87, 0.5, -7441.1, 742.43)" xlink:href="#_ÂÁ_Ï_ÌÌ_È_ËÂÌÚ_365"/><linearGradient id="_ÂÁ_Ï_ÌÌ_È_ËÂÌÚ_634-4" x1="150.16" y1="150.19" x2="180.14" y2="150.19" xlink:href="#_ÂÁ_Ï_ÌÌ_È_ËÂÌÚ_365"/><linearGradient id="_ÂÁ_Ï_ÌÌ_È_ËÂÌÚ_3-2" x1="17.65" y1="171.14" x2="38.54" y2="171.14" gradientTransform="translate(-2.52)" xlink:href="#_ÂÁ_Ï_ÌÌ_È_ËÂÌÚ_3"/><linearGradient id="_ÂÁ_Ï_ÌÌ_È_ËÂÌÚ_13" x1="33.66" y1="151.94" x2="18.11" y2="151.94" xlink:href="#_ÂÁ_Ï_ÌÌ_È_ËÂÌÚ_22"/><linearGradient id="_ÂÁ_Ï_ÌÌ_È_ËÂÌÚ_365-15" x1="-2668.39" y1="182.37" x2="-2668.39" y2="173.33" gradientTransform="matrix(-1, 0, 0, 1, -2637.52, 0)" xlink:href="#_ÂÁ_Ï_ÌÌ_È_ËÂÌÚ_365"/><linearGradient id="_ÂÁ_Ï_ÌÌ_È_ËÂÌÚ_35-2" x1="98.87" y1="43.41" x2="121.35" y2="43.41" gradientTransform="translate(-2.52)" xlink:href="#_ÂÁ_Ï_ÌÌ_È_ËÂÌÚ_3"/><linearGradient id="_ÂÁ_Ï_ÌÌ_È_ËÂÌÚ_365-16" x1="100.12" y1="39.1" x2="104.45" y2="39.1" xlink:href="#_ÂÁ_Ï_ÌÌ_È_ËÂÌÚ_365"/><linearGradient id="_ÂÁ_Ï_ÌÌ_È_ËÂÌÚ_365-17" x1="100.19" y1="46.09" x2="104.52" y2="46.09" xlink:href="#_ÂÁ_Ï_ÌÌ_È_ËÂÌÚ_365"/><linearGradient id="_ÂÁ_Ï_ÌÌ_È_ËÂÌÚ_374" x1="166.14" y1="17.41" x2="188.16" y2="55.57" gradientUnits="userSpaceOnUse"><stop offset="0.06" stop-color="#eaeaf9"/><stop offset="0.24" stop-color="#dfdff6"/><stop offset="0.71" stop-color="#c7c7ef"/><stop offset="1" stop-color="#bebeed"/></linearGradient><linearGradient id="_ÂÁ_Ï_ÌÌ_È_ËÂÌÚ_508" x1="182.55" y1="83.33" x2="149.02" y2="38.32" gradientUnits="userSpaceOnUse"><stop offset="0" stop-color="#eaeaf9"/><stop offset="0.46" stop-color="#d8d8f4"/><stop offset="1" stop-color="#bebeed"/></linearGradient><linearGradient id="_ÂÁ_Ï_ÌÌ_È_ËÂÌÚ_307" x1="170.32" y1="39.35" x2="190.62" y2="39.35" gradientUnits="userSpaceOnUse"><stop offset="0" stop-color="#eaeaf9"/><stop offset="0.56" stop-color="#bebeed"/></linearGradient><linearGradient id="_ÂÁ_Ï_ÌÌ_È_ËÂÌÚ_307-2" x1="186.42" y1="65.27" x2="186.42" y2="89.8" xlink:href="#_ÂÁ_Ï_ÌÌ_È_ËÂÌÚ_307"/><linearGradient id="_ÂÁ_Ï_ÌÌ_È_ËÂÌÚ_307-3" x1="198.94" y1="70.88" x2="210.55" y2="70.88" xlink:href="#_ÂÁ_Ï_ÌÌ_È_ËÂÌÚ_307"/><linearGradient id="_ÂÁ_Ï_ÌÌ_È_ËÂÌÚ_307-4" x1="209.92" y1="123.68" x2="209.92" y2="98.32" xlink:href="#_ÂÁ_Ï_ÌÌ_È_ËÂÌÚ_307"/><linearGradient id="_ÂÁ_Ï_ÌÌ_È_ËÂÌÚ_306" x1="202.32" y1="29.19" x2="258.5" y2="126.49" gradientUnits="userSpaceOnUse"><stop offset="0.24" stop-color="#eaeaf9"/><stop offset="0.45" stop-color="#bebeed"/></linearGradient><linearGradient id="_ÂÁ_Ï_ÌÌ_È_ËÂÌÚ_44" x1="290.82" y1="164.25" x2="290.82" y2="135.04" xlink:href="#_ÂÁ_Ï_ÌÌ_È_ËÂÌÚ_263"/><linearGradient id="_ÂÁ_Ï_ÌÌ_È_ËÂÌÚ_44-2" x1="262.16" y1="151.49" x2="260" y2="116.2" xlink:href="#_ÂÁ_Ï_ÌÌ_È_ËÂÌÚ_263"/><linearGradient id="_ÂÁ_Ï_ÌÌ_È_ËÂÌÚ_300" x1="248.65" y1="53.73" x2="289.12" y2="123.83" gradientUnits="userSpaceOnUse"><stop offset="0.34" stop-color="#eaeaf9"/><stop offset="0.43" stop-color="#bebeed"/></linearGradient><linearGradient id="_ÂÁ_Ï_ÌÌ_È_ËÂÌÚ_287" x1="287.46" y1="84.28" x2="320.88" y2="142.15" gradientUnits="userSpaceOnUse"><stop offset="0.45" stop-color="#eaeaf9"/><stop offset="0.56" stop-color="#bebeed"/></linearGradient><linearGradient id="_ÂÁ_Ï_ÌÌ_È_ËÂÌÚ_634-5" x1="263.07" y1="74.26" x2="352.38" y2="74.26" xlink:href="#_ÂÁ_Ï_ÌÌ_È_ËÂÌÚ_365"/><linearGradient id="_ÂÁ_Ï_ÌÌ_È_ËÂÌÚ_365-18" x1="31.04" y1="166.09" x2="116.28" y2="166.09" xlink:href="#_ÂÁ_Ï_ÌÌ_È_ËÂÌÚ_365"/><linearGradient id="_ÂÁ_Ï_ÌÌ_È_ËÂÌÚ_365-19" x1="94.79" y1="73.01" x2="119.95" y2="73.01" xlink:href="#_ÂÁ_Ï_ÌÌ_È_ËÂÌÚ_365"/><linearGradient id="_ÂÁ_Ï_ÌÌ_È_ËÂÌÚ_365-20" x1="278.09" y1="232.56" x2="351.86" y2="232.56" xlink:href="#_ÂÁ_Ï_ÌÌ_È_ËÂÌÚ_365"/></defs><path class="cls-1" d="M357.16,19.73l-6-6a8.59,8.59,0,1,0-7,3.69,8.46,8.46,0,0,0,5.4-1.93l5.9,5.95a1.18,1.18,0,0,0,1.68,0A1.22,1.22,0,0,0,357.16,19.73Zm-19.49-11a6.52,6.52,0,1,1,6.51,6.58A6.56,6.56,0,0,1,337.67,8.71Z"/><g class="cls-2"><path class="cls-3" d="M173.15,243.29,111.76,208a2.61,2.61,0,0,0-2.62,0L72.07,229.31a1.11,1.11,0,0,0,0,1.92l56.59,33.12,11.08.07,33.41-19.21A1.11,1.11,0,0,0,173.15,243.29Z"/></g><path class="cls-4" d="M133,260.31a5.75,5.75,0,0,1-5.81,0L67.66,225.19l0,.06v3.23a2.3,2.3,0,0,0,1.14,2l57.55,33.08a7.6,7.6,0,0,0,7.58,0l32.76-18.81a3.81,3.81,0,0,0,1.89-3.23l0-2.33Z"/><path class="cls-5" d="M132.92,260.38,168,240.2a1.1,1.1,0,0,0,0-1.9l-60.63-34.86a2.6,2.6,0,0,0-2.59,0L68.19,224.49a1.09,1.09,0,0,0,0,1.89l59.12,34A5.67,5.67,0,0,0,132.92,260.38Z"/><path class="cls-6" d="M153.45,234.91a2.15,2.15,0,0,0,2,0,.6.6,0,0,0,0-1.13,2.18,2.18,0,0,0-2,0A.6.6,0,0,0,153.45,234.91Z"/><path class="cls-6" d="M156.18,236.48a2.16,2.16,0,0,0,1.95,0c.54-.31.55-.82,0-1.13a2.18,2.18,0,0,0-2,0A.6.6,0,0,0,156.18,236.48Z"/><path class="cls-6" d="M158.9,238.06a2.18,2.18,0,0,0,2,0c.54-.32.55-.82,0-1.13a2.15,2.15,0,0,0-2,0A.6.6,0,0,0,158.9,238.06Z"/><path class="cls-7" d="M94.53,237.54l11.41,6.6a5.52,5.52,0,0,0,5-.21l4.19-2.42c1.47-.85,1.63-2.14.35-2.88L104.06,232a5.55,5.55,0,0,0-5,.21l-4.18,2.42C93.41,235.51,93.25,236.8,94.53,237.54Z"/><polygon class="cls-7" points="104.29 212.38 100.36 210.1 104.27 207.84 108.2 210.12 104.29 212.38"/><polygon class="cls-7" points="108.97 215.08 105.04 212.81 108.95 210.55 112.89 212.83 108.97 215.08"/><polygon class="cls-7" points="113.66 217.8 109.72 215.51 113.64 213.26 117.57 215.54 113.66 217.8"/><polygon class="cls-7" points="118.34 220.5 114.4 218.23 118.31 215.96 122.25 218.24 118.34 220.5"/><polygon class="cls-7" points="123.02 223.21 119.08 220.94 122.99 218.67 126.93 220.94 123.02 223.21"/><polygon class="cls-7" points="127.7 225.92 123.76 223.64 127.67 221.38 131.62 223.66 127.7 225.92"/><polygon class="cls-7" points="132.38 228.63 128.44 226.35 132.36 224.08 136.29 226.37 132.38 228.63"/><polygon class="cls-7" points="137.06 231.33 133.13 229.06 137.03 226.8 140.98 229.07 137.06 231.33"/><polygon class="cls-7" points="141.74 234.04 137.81 231.76 141.72 229.5 145.66 231.78 141.74 234.04"/><polygon class="cls-7" points="146.42 236.75 142.49 234.48 146.4 232.21 150.33 234.49 146.42 236.75"/><polygon class="cls-7" points="151.11 239.46 147.17 237.18 151.08 234.91 155.01 237.19 151.11 239.46"/><polygon class="cls-7" points="155.79 242.17 151.85 239.89 155.76 237.63 159.7 239.9 155.79 242.17"/><polygon class="cls-7" points="99.31 215.26 95.37 212.99 99.28 210.73 103.22 213 99.31 215.26"/><polygon class="cls-7" points="103.99 217.97 100.05 215.7 103.97 213.43 107.9 215.71 103.99 217.97"/><polygon class="cls-7" points="108.67 220.68 104.73 218.41 108.64 216.15 112.58 218.42 108.67 220.68"/><polygon class="cls-7" points="113.35 223.39 109.41 221.11 113.32 218.85 117.26 221.12 113.35 223.39"/><polygon class="cls-7" points="118.03 226.1 114.1 223.81 118.01 221.55 121.94 223.84 118.03 226.1"/><polygon class="cls-7" points="122.71 228.8 118.78 226.53 122.69 224.26 126.63 226.54 122.71 228.8"/><polygon class="cls-7" points="127.39 231.51 123.46 229.24 127.37 226.97 131.3 229.25 127.39 231.51"/><polygon class="cls-7" points="132.07 234.22 128.14 231.95 132.05 229.68 135.98 231.96 132.07 234.22"/><polygon class="cls-7" points="136.75 236.92 132.82 234.65 136.73 232.39 140.67 234.66 136.75 236.92"/><polygon class="cls-7" points="141.44 239.63 137.5 237.36 141.41 235.1 145.34 237.37 141.44 239.63"/><polygon class="cls-7" points="146.12 242.34 142.18 240.06 146.09 237.8 150.03 240.08 146.12 242.34"/><polygon class="cls-7" points="150.8 245.05 146.86 242.77 150.77 240.51 154.71 242.79 150.8 245.05"/><polygon class="cls-7" points="94.14 218.25 90.21 215.98 94.12 213.72 98.05 215.99 94.14 218.25"/><polygon class="cls-7" points="98.82 220.96 94.89 218.68 98.8 216.42 102.74 218.7 98.82 220.96"/><polygon class="cls-7" points="103.51 223.67 99.56 221.39 103.48 219.13 107.42 221.41 103.51 223.67"/><polygon class="cls-7" points="108.18 226.38 104.25 224.1 108.16 221.84 112.1 224.11 108.18 226.38"/><polygon class="cls-7" points="112.86 229.08 108.93 226.81 112.84 224.55 116.78 226.82 112.86 229.08"/><polygon class="cls-7" points="117.54 231.79 113.61 229.52 117.52 227.25 121.46 229.53 117.54 231.79"/><polygon class="cls-7" points="122.23 234.5 118.3 232.22 122.21 229.96 126.14 232.24 122.23 234.5"/><polygon class="cls-7" points="126.91 237.21 122.97 234.93 126.88 232.67 130.82 234.95 126.91 237.21"/><polygon class="cls-7" points="131.59 239.92 127.66 237.64 131.57 235.37 135.5 237.65 131.59 239.92"/><polygon class="cls-7" points="136.27 242.62 132.34 240.35 136.25 238.08 140.19 240.35 136.27 242.62"/><polygon class="cls-7" points="140.96 245.33 137.01 243.05 140.93 240.79 144.86 243.07 140.96 245.33"/><polygon class="cls-7" points="145.64 248.04 141.7 245.76 145.61 243.5 149.54 245.78 145.64 248.04"/><path class="cls-8" d="M96.86,245.65l-2-1.17a1.27,1.27,0,0,1-.52-1c0-.38.24-.56.52-.39l2,1.17a1.25,1.25,0,0,1,.52,1C97.38,245.64,97.14,245.81,96.86,245.65Z"/><path class="cls-9" d="M107,156.53l.07-.05-.06.05Z"/><path class="cls-10" d="M173.74,192.87a6.64,6.64,0,0,0-3.22-4.7l-58-33.48a2.37,2.37,0,0,0-2.36,0l-2.94,1.76a2.35,2.35,0,0,1,2.35,0l58,33.45a6.83,6.83,0,0,1,3.32,5.76v38.58a3.22,3.22,0,0,1-1.54,2.76l2.83-1.59a3.21,3.21,0,0,0,1.72-2.85V193.94A6.26,6.26,0,0,0,173.74,192.87Z"/><path class="cls-5" d="M107,156.53l.06-.05.08,0a2.35,2.35,0,0,1,2.35,0l58,33.45a6.65,6.65,0,0,1,3.32,5.76v38.58A3.21,3.21,0,0,1,166,237L109.23,204.6A6.5,6.5,0,0,1,106,199V158.53A2.35,2.35,0,0,1,107,156.53Z"/><path class="cls-11" d="M166.77,191.46,108.87,158a1,1,0,0,0-1.52.89l.09,39.9a5.29,5.29,0,0,0,2.68,4.62L165.55,235a2.31,2.31,0,0,0,3.45-2v-37.7A4.46,4.46,0,0,0,166.77,191.46Z"/><polygon class="cls-12" points="166.17 220.64 163.48 219.05 163.47 219.54 166.17 221.13 166.17 220.64"/><polygon class="cls-12" points="157.81 210.18 157.81 210.67 164.36 214.54 164.36 214.05 157.81 210.18"/><polygon class="cls-12" points="157.81 211.13 157.81 211.62 162.28 214.25 162.28 213.77 157.81 211.13"/><polygon class="cls-12" points="166.17 216.06 162.72 214.03 162.72 214.51 166.17 216.54 166.17 216.06"/><polygon class="cls-12" points="157.81 212.08 157.81 212.57 166.17 217.5 166.17 217.01 157.81 212.08"/><polygon class="cls-12" points="166.17 217.96 159.41 213.97 159.4 214.46 166.17 218.45 166.17 217.96"/><polygon class="cls-12" points="157.81 214.78 157.81 215.26 166.17 220.19 166.17 219.71 157.81 214.78"/><polygon class="cls-12" points="157.81 215.72 157.81 216.21 163.05 219.31 163.06 218.82 157.81 215.72"/><polygon class="cls-12" points="157.81 216.67 157.81 217.16 166.1 222.05 166.1 221.57 157.81 216.67"/><polygon class="cls-12" points="166.17 222.75 159.32 218.71 159.32 219.19 166.17 223.24 166.17 222.75"/><polygon class="cls-12" points="157.81 218.77 157.81 219.26 166.17 224.19 166.17 223.7 157.81 218.77"/><polygon class="cls-12" points="157.81 219.72 157.81 220.21 163.3 223.44 163.3 222.96 157.81 219.72"/><polygon class="cls-12" points="166.17 224.65 163.78 223.24 163.77 223.72 166.17 225.14 166.17 224.65"/><polygon class="cls-12" points="157.81 221.62 157.81 222.1 162.18 224.68 162.19 224.2 157.81 221.62"/><polygon class="cls-12" points="166.17 226.54 162.67 224.48 162.67 224.96 166.17 227.02 166.17 226.54"/><polygon class="cls-12" points="157.81 224.53 157.81 225.01 163.9 228.61 163.91 228.13 157.81 224.53"/><polygon class="cls-12" points="157.81 225.47 157.81 225.96 165.98 230.78 165.98 230.3 157.81 225.47"/><path class="cls-13" d="M111.36,200.31l6.57-9.78a1.77,1.77,0,0,1,3.15.43l1.49,4.49A1.43,1.43,0,0,0,125,196l7.06-7.37a2.3,2.3,0,0,1,3.84.85L141,204.41a4.12,4.12,0,0,0,6.46,1.9l.79-.62a1.52,1.52,0,0,1,2.41.81l4.85,18.73Z"/><path class="cls-14" d="M154.85,196.7c0-1.83,1.28-2.58,2.86-1.68v-4.87c-4-2.3-7.25-.44-7.27,4.18l4.43,2.56A1.15,1.15,0,0,1,154.85,196.7Z"/><path class="cls-15" d="M154.86,196.89l-4.43-2.56a15,15,0,0,0,2.15,7.26l3.18-1.92A6.11,6.11,0,0,1,154.86,196.89Z"/><path class="cls-16" d="M165.07,202.82a16.25,16.25,0,0,0-7.32-12.65l-.05,0V195a6.42,6.42,0,0,1,2.95,5c0,1.85-1.3,2.6-2.91,1.67a5.91,5.91,0,0,1-2-2.07l-3.18,1.92a14.94,14.94,0,0,0,5.16,5.46c4.06,2.36,7.33.48,7.33-4.18Z"/><path class="cls-15" d="M133.17,181v.43c-.41-.24-.75,0-.76.44l-.37-.21C132,180.91,132.55,180.62,133.17,181Z"/><path class="cls-15" d="M133.13,184.41c1,.6,1.87.12,1.87-1.06a4.15,4.15,0,0,0-1.87-3.24s0-1,0-1a6.13,6.13,0,0,1,2.78,4.79c0,1.76-1.24,2.47-2.76,1.58,0,0,0-1,0-1Z"/><path class="cls-14" d="M131.3,181.18a4.14,4.14,0,0,0,1.85,3.24v1a6.13,6.13,0,0,1-2.74-4.77S131.3,181.18,131.3,181.18Z"/><polygon class="cls-17" points="112.99 180.76 112.97 182.09 111.81 181.4 111.83 180.07 112.99 180.76"/><polygon class="cls-18" points="113.02 178.08 113 179.41 111.85 178.72 111.86 177.39 113.02 178.08"/><polygon class="cls-18" points="113.05 175.41 113.03 176.73 111.88 176.04 111.89 174.72 113.05 175.41"/><polygon class="cls-17" points="113.08 172.73 113.06 174.05 111.91 173.36 111.92 172.04 113.08 172.73"/><polygon class="cls-19" points="113.11 170.05 113.1 171.38 111.94 170.69 111.95 169.36 113.11 170.05"/><polygon class="cls-19" points="113.14 167.37 113.13 168.7 111.97 168.01 111.99 166.68 113.14 167.37"/><polygon class="cls-19" points="114.76 181.82 114.75 183.14 113.59 182.45 113.61 181.13 114.76 181.82"/><polygon class="cls-17" points="114.79 179.14 114.78 180.47 113.62 179.78 113.64 178.45 114.79 179.14"/><polygon class="cls-14" points="114.83 176.46 114.81 177.79 113.65 177.1 113.67 175.77 114.83 176.46"/><polygon class="cls-18" points="114.86 173.78 114.84 175.11 113.68 174.42 113.7 173.1 114.86 173.78"/><polygon class="cls-19" points="114.89 171.11 114.87 172.43 113.72 171.74 113.73 170.42 114.89 171.11"/><polygon class="cls-20" points="114.92 168.43 114.9 169.75 113.75 169.07 113.76 167.74 114.92 168.43"/><polygon class="cls-18" points="116.57 182.89 116.55 184.22 115.4 183.53 115.41 182.21 116.57 182.89"/><polygon class="cls-18" points="116.6 180.22 116.58 181.54 115.43 180.85 115.44 179.53 116.6 180.22"/><polygon class="cls-19" points="116.63 177.54 116.62 178.86 115.46 178.18 115.47 176.85 116.63 177.54"/><polygon class="cls-17" points="116.66 174.86 116.65 176.19 115.49 175.5 115.5 174.17 116.66 174.86"/><polygon class="cls-18" points="116.69 172.18 116.68 173.51 115.52 172.82 115.54 171.5 116.69 172.18"/><polygon class="cls-20" points="116.72 169.51 116.71 170.83 115.55 170.14 115.57 168.82 116.72 169.51"/><polygon class="cls-14" points="118.25 183.9 118.23 185.22 117.08 184.53 117.09 183.21 118.25 183.9"/><polygon class="cls-17" points="118.28 181.22 118.26 182.54 117.11 181.85 117.12 180.53 118.28 181.22"/><polygon class="cls-18" points="118.31 178.54 118.3 179.87 117.14 179.18 117.15 177.85 118.31 178.54"/><polygon class="cls-18" points="118.34 175.86 118.33 177.19 117.17 176.5 117.19 175.17 118.34 175.86"/><polygon class="cls-18" points="118.37 173.18 118.36 174.51 117.2 173.82 117.22 172.5 118.37 173.18"/><polygon class="cls-14" points="118.41 170.51 118.39 171.83 117.23 171.14 117.25 169.82 118.41 170.51"/><path class="cls-21" d="M256.61,237.37l-23.32-13.59a4.47,4.47,0,0,0-4.06.17l-46.07,26.86c-1.21.7-1.34,1.76-.29,2.37l16.29,15.93,6.18,0,51-29.38C257.53,239,257.66,238,256.61,237.37Z"/><path class="cls-22" d="M249.4,237.9l-48.49,28.27a4.71,4.71,0,0,1-4.28.18L172.09,252a1.27,1.27,0,0,1-.74-1s0,.9,0,.9v1.39a1.33,1.33,0,0,0,.76,1.12l24.54,14.31a4.71,4.71,0,0,0,4.28-.18l48.49-28.27a1.72,1.72,0,0,0,1-1.49V238a.75.75,0,0,0,0-.15v-1.34A1.8,1.8,0,0,1,249.4,237.9Z"/><path class="cls-23" d="M250.44,236.29a.57.57,0,0,0,0,.13Z"/><path class="cls-24" d="M172.09,252l24.54,14.31a4.71,4.71,0,0,0,4.28-.18L249.4,237.9a1.8,1.8,0,0,0,1-1.37v-.11s0-.09,0-.13a1.38,1.38,0,0,0-.73-.88L225.16,221.1a4.71,4.71,0,0,0-4.28.18l-48.49,28.26a1.75,1.75,0,0,0-1,1.46A1.27,1.27,0,0,0,172.09,252Z"/><path class="cls-11" d="M197.31,265.15,174,251.56c-1-.61-.91-1.67.3-2.38l46.06-26.85a4.49,4.49,0,0,1,4.07-.17l23.32,13.59c1,.61.91,1.67-.29,2.38L201.38,265A4.49,4.49,0,0,1,197.31,265.15Z"/><g class="cls-25"><path class="cls-26" d="M202.74,257.48a.24.24,0,0,0,.23,0c.07,0,.07-.1,0-.13a.24.24,0,0,0-.23,0A.07.07,0,0,0,202.74,257.48Z"/><path class="cls-26" d="M202.13,257.84a.24.24,0,0,0,.23,0c.07,0,.07-.1,0-.14a.24.24,0,0,0-.23,0C202.06,257.74,202.06,257.8,202.13,257.84Z"/><path class="cls-26" d="M201.52,258.19a.24.24,0,0,0,.23,0,.07.07,0,0,0,0-.13.24.24,0,0,0-.23,0C201.45,258.1,201.45,258.16,201.52,258.19Z"/><path class="cls-26" d="M200.91,258.55a.24.24,0,0,0,.23,0c.07,0,.07-.1,0-.14a.31.31,0,0,0-.23,0C200.84,258.45,200.84,258.51,200.91,258.55Z"/><path class="cls-26" d="M200.29,258.91a.33.33,0,0,0,.24,0,.08.08,0,0,0,0-.14.24.24,0,0,0-.23,0C200.23,258.81,200.23,258.87,200.29,258.91Z"/><path class="cls-26" d="M199.68,259.26a.25.25,0,0,0,.24,0,.08.08,0,0,0,0-.14.29.29,0,0,0-.24,0C199.62,259.16,199.62,259.22,199.68,259.26Z"/><path class="cls-26" d="M199.07,259.62a.33.33,0,0,0,.24,0,.08.08,0,0,0,0-.14.26.26,0,0,0-.24,0A.08.08,0,0,0,199.07,259.62Z"/><path class="cls-26" d="M198.46,260a.26.26,0,0,0,.24,0c.06,0,.06-.1,0-.13a.25.25,0,0,0-.24,0A.07.07,0,0,0,198.46,260Z"/><path class="cls-26" d="M197.85,260.33a.25.25,0,0,0,.24,0,.08.08,0,0,0,0-.14.26.26,0,0,0-.24,0A.08.08,0,0,0,197.85,260.33Z"/><path class="cls-26" d="M197.24,260.68a.24.24,0,0,0,.23,0c.07,0,.07-.1,0-.13a.26.26,0,0,0-.24,0C197.18,260.59,197.17,260.65,197.24,260.68Z"/><polygon class="cls-26" points="199.25 255.6 201.53 256.92 201.83 256.75 199.54 255.42 199.25 255.6"/><polygon class="cls-26" points="198.67 255.93 200.96 257.25 201.25 257.08 198.97 255.76 198.67 255.93"/><polygon class="cls-26" points="198.09 256.27 200.38 257.59 200.68 257.42 198.39 256.1 198.09 256.27"/><polygon class="cls-26" points="195.66 255.53 199.81 257.92 200.1 257.75 195.96 255.36 195.66 255.53"/><polygon class="cls-26" points="195.42 256.62 197.71 257.94 198.01 257.77 195.72 256.45 195.42 256.62"/><polygon class="cls-26" points="194.85 256.95 197.14 258.28 197.43 258.11 195.14 256.78 194.85 256.95"/><polygon class="cls-26" points="194.27 257.29 196.56 258.61 196.85 258.44 194.57 257.12 194.27 257.29"/><polygon class="cls-26" points="194.58 252.55 199.25 255.25 198.95 255.43 194.28 252.72 194.58 252.55"/><polygon class="cls-26" points="194.04 253.25 198.38 255.76 198.67 255.59 194.34 253.08 194.04 253.25"/><polygon class="cls-26" points="193.42 253.22 198.1 255.93 197.8 256.1 193.13 253.39 193.42 253.22"/><polygon class="cls-26" points="192.84 253.56 195.18 254.91 194.89 255.08 192.55 253.73 192.84 253.56"/><polygon class="cls-26" points="191.78 254.17 195.43 256.28 195.13 256.45 191.48 254.34 191.78 254.17"/><polygon class="cls-26" points="191.2 254.5 194.85 256.61 194.55 256.79 190.9 254.67 191.2 254.5"/><polygon class="cls-26" points="190.62 254.84 194.27 256.95 193.98 257.12 190.32 255.01 190.62 254.84"/><polygon class="cls-26" points="192.31 256.97 194.6 258.29 194.9 258.12 192.61 256.8 192.31 256.97"/><polygon class="cls-26" points="189.92 255.24 192.31 256.62 192.02 256.79 189.63 255.41 189.92 255.24"/><polygon class="cls-26" points="189.34 255.57 194.32 258.45 194.03 258.63 189.04 255.75 189.34 255.57"/><polygon class="cls-26" points="188.76 255.91 193.75 258.79 193.45 258.96 188.47 256.08 188.76 255.91"/><polygon class="cls-26" points="203.9 257.95 205.77 259.03 205.47 259.2 203.6 258.12 203.9 257.95"/><polygon class="cls-26" points="203.32 258.29 205.19 259.37 204.9 259.54 203.03 258.46 203.32 258.29"/><polygon class="cls-26" points="202.17 258.96 205 260.59 204.7 260.76 201.88 259.13 202.17 258.96"/><polygon class="cls-26" points="203.94 261.21 203.64 261.38 201.43 260.1 201.73 259.93 203.94 261.21"/><polygon class="cls-26" points="206.72 259.59 206.43 259.76 205.76 259.37 206.06 259.2 206.72 259.59"/><polygon class="cls-26" points="206.15 259.92 205.85 260.09 205.19 259.71 205.48 259.54 206.15 259.92"/><polygon class="cls-26" points="202.09 262.29 201.79 262.46 200.84 261.91 201.14 261.74 202.09 262.29"/><polygon class="cls-26" points="201.51 262.62 201.22 262.79 200.27 262.24 200.56 262.07 201.51 262.62"/></g><path class="cls-27" d="M224.15,242.55a14.41,14.41,0,0,1-13,0c-3.58-2.08-3.56-5.48,0-7.57l.08,0-3.11-1.8-.08,0c-5.33,3.09-5.36,8.11-.06,11.18s13.94,3.06,19.27,0l.07,0-3.11-1.8Z"/><path class="cls-12" d="M208,233.24l3.11,1.81A14.37,14.37,0,0,1,224,235l3.17-1.79C221.88,230.2,213.32,230.2,208,233.24Z"/><path class="cls-24" d="M224,235l.07,0c3.56,2.06,3.56,5.42,0,7.52l3.11,1.8c5.25-3.1,5.25-8.08,0-11.13C227.17,233.23,224,235,224,235Z"/><path class="cls-21" d="M399.56,162.71,369,145c-3.46-2-3-5.53,1-7.85s10.08-2.57,13.54-.56l30.53,17.71c3.46,2,3,5.54-1,7.86S403,164.72,399.56,162.71Z"/><path class="cls-28" d="M379.91,115.34a3.31,3.31,0,0,1,1.21-3,6,6,0,0,1,1.17-.86c.23-.13.47-.25.71-.37V97.46a3.57,3.57,0,0,1-1.37,2.62,6.7,6.7,0,0,1-1.05.74q-.29.17-.57.3l-.22.1-.38.16-.29.11-.31.11-.36.12-.19,0a12.43,12.43,0,0,1-2.3.4,12.84,12.84,0,0,1-1.86,0,12.2,12.2,0,0,1-1.83-.2l-.12,0-.7-.16-.23-.06-.57-.17-.25-.09c-.18-.06-.36-.14-.53-.21l-.22-.1-.7-.35a6.36,6.36,0,0,1-1-.73,3.53,3.53,0,0,1-1.36-2.53v44.23A4.14,4.14,0,0,0,369,145a12.24,12.24,0,0,0,6.83,1.35,12.11,12.11,0,0,0,4.1-1v-1.29Z"/><path class="cls-5" d="M369,100.85l.7.35.22.1c.17.07.35.15.53.21l.25.09.57.17.23.06.7.16.12,0a12.2,12.2,0,0,0,1.83.2,12.84,12.84,0,0,0,1.86,0,12.43,12.43,0,0,0,2.3-.4l.19,0,.36-.12.31-.11.29-.11.38-.16.22-.1q.28-.14.57-.3a6.7,6.7,0,0,0,1.05-.74A3.57,3.57,0,0,0,383,97.46c0-1.23-.78-2.46-2.39-3.39a12.77,12.77,0,0,0-11.62,0c-1.67,1-2.47,2.24-2.42,3.5a3.53,3.53,0,0,0,1.36,2.53A6.36,6.36,0,0,0,369,100.85Z"/><path class="cls-29" d="M391.85,134.1a3,3,0,0,1,.12-.94,4.7,4.7,0,0,1,2.3-2.56,9.35,9.35,0,0,1,2-.87V115.34h-.06a4.46,4.46,0,0,1-2.37,2.85,6,6,0,0,1-.56.3l-.22.1-.38.16-.29.11-.31.11-.36.11-.19,0a12,12,0,0,1-1.5.27c-.27,0-.53.12-.8.14a12.84,12.84,0,0,1-1.86,0,12.2,12.2,0,0,1-1.83-.2l-.12,0-.7-.16-.23-.06q-.28-.08-.57-.18l-.25-.08-.54-.22-.17-.06,0,0a6.56,6.56,0,0,1-.7-.36,4.34,4.34,0,0,1-2.35-2.87s0,23,0,28.75v5.27a.89.89,0,0,0,0,.23,4.12,4.12,0,0,0,2.38,3.25,12.3,12.3,0,0,0,7.17,1.31,12.64,12.64,0,0,0,2.42-.47V134.1Z"/><path class="cls-30" d="M381.12,112.32a3.31,3.31,0,0,0-1.21,3,4.34,4.34,0,0,0,2.35,2.87,7.49,7.49,0,0,0,.69.36l.05,0,.17.07.54.22.25.08q.29.11.57.18l.23.06.7.16.12,0a12.2,12.2,0,0,0,1.83.2,12.84,12.84,0,0,0,1.86,0c.27,0,.53-.1.8-.14a12,12,0,0,0,1.5-.27l.19,0,.36-.11.31-.11.29-.11.38-.16.22-.1a6,6,0,0,0,.56-.3,4.46,4.46,0,0,0,2.37-2.85c.28-1.4-.5-2.84-2.33-3.9a12.93,12.93,0,0,0-10.92-.35c-.24.12-.48.24-.71.37A6,6,0,0,0,381.12,112.32Z"/><path class="cls-31" d="M408.28,133.89a3.54,3.54,0,0,1-1.35,2.68,7,7,0,0,1-1.07.76c-.18.11-.37.2-.56.3l-.18.08-.43.18-.06,0-.14.05-.58.2-.27.08-.35.09-.35.09-.27,0q-.46.09-.93.15a12.88,12.88,0,0,1-1.64.09l-.3,0h-.16c-.26,0-.53,0-.79,0l-.18,0a8.65,8.65,0,0,1-.89-.11,8.49,8.49,0,0,1-.93-.19l-.18-.05c-.22,0-.44-.12-.66-.19l-.25-.08c-.2-.07-.38-.15-.57-.23l-.23-.09c-.25-.12-.5-.24-.73-.38a5.43,5.43,0,0,1-1.75-1.52,3.11,3.11,0,0,1-.63-1.73v22.45a4.17,4.17,0,0,0,2.38,3.23,12.43,12.43,0,0,0,7.38,1.29,10.93,10.93,0,0,0,4.25-1.32,4.28,4.28,0,0,0,2.42-3.2Z"/><path class="cls-14" d="M392,133.16a3,3,0,0,0-.12.94,3.11,3.11,0,0,0,.63,1.73,5.43,5.43,0,0,0,1.75,1.52c.23.14.48.26.73.38l.23.09c.19.08.37.16.57.23l.25.08c.22.07.44.14.66.19l.14,0c.34.08.63.15,1,.2s.6.09.9.11l.18,0c.26,0,.53,0,.79,0h.16l.3,0a12.88,12.88,0,0,0,1.64-.09q.47-.06.93-.15l.27,0,.35-.09.35-.09.27-.08.58-.2.14-.05.06,0,.43-.18.18-.08c.19-.1.38-.19.56-.3a7,7,0,0,0,1.07-.76,3.54,3.54,0,0,0,1.35-2.68,4.11,4.11,0,0,0-2.39-3.31,13,13,0,0,0-9.58-.85,9.35,9.35,0,0,0-2,.87A4.7,4.7,0,0,0,392,133.16Z"/><path class="cls-21" d="M373,219.07l-10.88-6.31H325.77l26,15.24h10.65L373,221.9A1.63,1.63,0,0,0,373,219.07Z"/><path class="cls-32" d="M352.2,225.14l-.06,0a1.67,1.67,0,0,1-.3-.08l-.31-.14-26.45-15.35a.89.89,0,0,1-.52-.81s0,3.34,0,3.34a1,1,0,0,0,.6.82l26.34,15.29a2.91,2.91,0,0,0,1.52.33V225.2A3.42,3.42,0,0,1,352.2,225.14Z"/><path class="cls-33" d="M365.86,218.23l-11.28,6.54a2,2,0,0,1-.36.17l-.05,0-.35.12a4.06,4.06,0,0,1-.83.12v3.32a2.75,2.75,0,0,0,1.3-.33L366,221.41a1,1,0,0,0,.57-.84s0-3.14,0-3.14A1.47,1.47,0,0,1,365.86,218.23Z"/><path class="cls-8" d="M363.9,217.86l-9.52,5.52a2.14,2.14,0,0,1-1.95.09l-10.65-6.18a13.92,13.92,0,0,0,4.93-.74l-1-.59a7.16,7.16,0,0,1-5-.18c-1.12-.65-1.16-1.76-.31-2.89l-.94-.55a3.53,3.53,0,0,0-1.29,2.86l-10.55-6.12c-.5-.29-.44-.8.14-1.14l2.06-1.19-1.38-.8-3.15,1.83a1.28,1.28,0,0,0-.74,1,.89.89,0,0,0,.52.81l26.45,15.35.31.14a1.67,1.67,0,0,0,.3.08l.06,0a3.42,3.42,0,0,0,.79.06,3.87,3.87,0,0,0,.82-.12l.36-.12.05,0a2,2,0,0,0,.36-.17l11.28-6.54a1.47,1.47,0,0,0,.71-.8.85.85,0,0,0-.49-1l-.77-.44-1.26.73C364.53,217,364.47,217.53,363.9,217.86Z"/><path class="cls-24" d="M327.77,207.94c-.58.34-.64.85-.14,1.14l10.55,6.12a3.53,3.53,0,0,1,1.29-2.86l-9.64-5.59Zm2.7,1.21a1.72,1.72,0,0,1-1.59,0c-.44-.25-.45-.67,0-.92a1.75,1.75,0,0,1,1.59,0C330.91,208.49,330.91,208.9,330.47,209.15Z"/><path class="cls-34" d="M356.82,217.63l.05,0Z"/><path class="cls-34" d="M354.18,217.56a1.46,1.46,0,0,0,.31.14A1.46,1.46,0,0,1,354.18,217.56Z"/><path class="cls-34" d="M354.79,217.79h0Z"/><path class="cls-24" d="M346.71,216.55a13.92,13.92,0,0,1-4.93.74l10.65,6.18a2.14,2.14,0,0,0,1.95-.09l9.52-5.52c.57-.33.63-.83.15-1.12l-1,.55a.63.63,0,0,1-.28.28,1.52,1.52,0,0,1-.48.17L357,220.86a2.88,2.88,0,0,1-1.3.33,3,3,0,0,1-1.52-.34Zm7.06,6.27a1.78,1.78,0,0,1-1.59,0,.49.49,0,0,1,0-.93,1.75,1.75,0,0,1,1.59,0C354.21,222.15,354.21,222.56,353.77,222.82Z"/><path class="cls-24" d="M340.72,215.78a7.16,7.16,0,0,0,5,.18l-5.29-3.07C339.56,214,339.6,215.13,340.72,215.78Z"/><path class="cls-8" d="M363.09,217.29l-.76.45a1.52,1.52,0,0,0,.48-.17A.63.63,0,0,0,363.09,217.29Z"/><path class="cls-8" d="M328.87,208.23c-.44.25-.43.67,0,.92a1.72,1.72,0,0,0,1.59,0c.44-.25.44-.66,0-.92A1.75,1.75,0,0,0,328.87,208.23Z"/><path class="cls-8" d="M353.77,221.9a1.75,1.75,0,0,0-1.59,0,.49.49,0,0,0,0,.93,1.78,1.78,0,0,0,1.59,0C354.21,222.56,354.21,222.15,353.77,221.9Z"/><path class="cls-32" d="M339.47,212.34l.94.55L345.7,216l1,.59,7.42,4.3a3,3,0,0,0,1.52.34v-3.33a3.42,3.42,0,0,1-.79-.06h-.06c-.1,0-.2,0-.3-.09a1.46,1.46,0,0,1-.31-.14L352,216.3l-.06,0a2.88,2.88,0,0,1-1.3.34v-3.33a3.42,3.42,0,0,1-.79-.06l-.06,0a1.67,1.67,0,0,1-.3-.08l-.31-.14-26.45-15.35a.88.88,0,0,1-.52-.81s0,3.34,0,3.34a1,1,0,0,0,.6.82l4.4,2.56v1.14a1,1,0,0,0,.6.83l.66.38,1.38.8Z"/><path class="cls-33" d="M368.51,210.89l-11.28,6.54a2,2,0,0,1-.36.18l-.05,0-.35.11a4.06,4.06,0,0,1-.83.12v3.33a2.88,2.88,0,0,0,1.3-.33l5.38-3.12.76-.45,1-.55,1.26-.73,3.33-1.93a1,1,0,0,0,.57-.85s0-3.13,0-3.13A1.45,1.45,0,0,1,368.51,210.89Z"/><path class="cls-8" d="M368.73,209.12l-4.51-2.62V208l2.47,1.43c.5.29.43.8-.15,1.14L357,216.05a2.17,2.17,0,0,1-1.95.08l-1.39-.81-1.68,1,2.17,1.26a1.46,1.46,0,0,0,.31.14c.1,0,.2.06.3.09h.06a3.42,3.42,0,0,0,.79.06,3.87,3.87,0,0,0,.82-.12l.36-.11.05,0a2,2,0,0,0,.36-.18l11.28-6.54a1.45,1.45,0,0,0,.71-.79A.84.84,0,0,0,368.73,209.12Z"/><path class="cls-24" d="M364.21,208.71a.81.81,0,0,1-.19.53,1.8,1.8,0,0,1,1.44.07.49.49,0,0,1,0,.93,1.78,1.78,0,0,1-1.59,0c-.31-.18-.4-.44-.28-.66l-8.3,4.82a1.73,1.73,0,0,1,1.13.16c.44.26.44.67,0,.92a1.72,1.72,0,0,1-1.59,0c-.31-.18-.39-.43-.27-.66l-.87.5,1.39.81a2.17,2.17,0,0,0,1.95-.08l9.51-5.52c.58-.34.65-.85.15-1.14L364.22,208v.75Z"/><path class="cls-34" d="M351.82,213.1h0Z"/><path class="cls-8" d="M363.87,210.24a1.78,1.78,0,0,0,1.59,0,.49.49,0,0,0,0-.93,1.8,1.8,0,0,0-1.44-.07,1.51,1.51,0,0,1-.38.31C363.47,209.8,363.56,210.06,363.87,210.24Z"/><path class="cls-8" d="M354.83,215.48a1.72,1.72,0,0,0,1.59,0c.44-.25.44-.66,0-.92a1.73,1.73,0,0,0-1.13-.16l-.73.42C354.44,215.05,354.52,215.3,354.83,215.48Z"/><path class="cls-33" d="M363.51,206.37l-11.28,6.54a2,2,0,0,1-.36.18h-.05a2.06,2.06,0,0,1-.35.12,4.06,4.06,0,0,1-.83.12v3.33a2.88,2.88,0,0,0,1.3-.34l.06,0,1.68-1,.87-.5.73-.42,8.3-4.82a1.64,1.64,0,0,0,.43-.34.81.81,0,0,0,.19-.53s0-.75,0-.75v-2.39A1.44,1.44,0,0,1,363.51,206.37Z"/><path class="cls-8" d="M322.73,197.69,349.18,213l.31.14a1.67,1.67,0,0,0,.3.08l.06,0a3.42,3.42,0,0,0,.79.06,3.87,3.87,0,0,0,.82-.12,1.9,1.9,0,0,0,.36-.12h.05a2,2,0,0,0,.36-.18l11.28-6.54a1.44,1.44,0,0,0,.71-.8.83.83,0,0,0-.49-1l-26.45-15.35a3.37,3.37,0,0,0-3,.13L323,195.92a1.3,1.3,0,0,0-.74,1A.88.88,0,0,0,322.73,197.69Zm25.3.63c1.71,1,.93,3.05-1.73,4.59s-6.22,2-7.93,1-.93-3,1.74-4.6S346.32,197.33,348,198.32ZM361.55,206,352,211.52a2.14,2.14,0,0,1-1.95.09l-10.65-6.18a14.83,14.83,0,0,0,7.76-2c2.81-1.63,4-3.67,3.26-5.07l11.24,6.52C362.19,205.16,362.12,205.67,361.55,206Zm-36.13-9.93,9.51-5.52a2.19,2.19,0,0,1,2-.08L348,197a14,14,0,0,0-8.74,1.9c-2.44,1.42-3.69,3.15-3.47,4.49l-10.55-6.12C324.78,196.93,324.84,196.42,325.42,196.08Z"/><path class="cls-24" d="M325.28,197.22l10.55,6.12c-.22-1.34,1-3.07,3.47-4.49A14,14,0,0,1,348,197l-11.15-6.47a2.19,2.19,0,0,0-2,.08l-9.51,5.52C324.84,196.42,324.78,196.93,325.28,197.22Zm10-5.93a1.8,1.8,0,0,1,1.6,0,.49.49,0,0,1,0,.93,1.75,1.75,0,0,1-1.59,0A.49.49,0,0,1,335.27,191.29Zm-8.75,5.08a1.78,1.78,0,0,1,1.59,0c.45.26.45.67,0,.93a1.75,1.75,0,0,1-1.59,0A.49.49,0,0,1,326.52,196.37Z"/><path class="cls-24" d="M347.19,203.42a14.83,14.83,0,0,1-7.76,2l10.65,6.18a2.14,2.14,0,0,0,1.95-.09l9.52-5.51c.57-.34.64-.85.14-1.14l-11.24-6.52C351.23,199.75,350,201.79,347.19,203.42Zm4.23,7.54a1.78,1.78,0,0,1-1.59,0,.49.49,0,0,1,0-.93,1.75,1.75,0,0,1,1.59,0A.49.49,0,0,1,351.42,211Zm7.45-5.25a.49.49,0,0,1,0-.92,1.78,1.78,0,0,1,1.59,0,.49.49,0,0,1,0,.93A1.75,1.75,0,0,1,358.87,205.71Z"/><path class="cls-24" d="M338.37,203.92c1.71,1,5.26.54,7.93-1s3.44-3.6,1.73-4.59-5.26-.54-7.92,1S336.67,202.93,338.37,203.92Z"/><path class="cls-8" d="M335.28,192.21a1.75,1.75,0,0,0,1.59,0,.49.49,0,0,0,0-.93,1.8,1.8,0,0,0-1.6,0A.49.49,0,0,0,335.28,192.21Z"/><path class="cls-8" d="M360.46,204.79a1.78,1.78,0,0,0-1.59,0,.49.49,0,0,0,0,.92,1.75,1.75,0,0,0,1.59,0A.49.49,0,0,0,360.46,204.79Z"/><path class="cls-8" d="M326.53,197.29a1.75,1.75,0,0,0,1.59,0c.44-.26.44-.67,0-.93a1.78,1.78,0,0,0-1.59,0A.49.49,0,0,0,326.53,197.29Z"/><path class="cls-35" d="M351.42,210a1.75,1.75,0,0,0-1.59,0,.49.49,0,0,0,0,.93,1.78,1.78,0,0,0,1.59,0A.49.49,0,0,0,351.42,210Z"/><path class="cls-14" d="M342.76,195.87a5.35,5.35,0,0,0-3.1-.55,4.72,4.72,0,0,0-1.76.55,1.68,1.68,0,0,0-1,1.37,1.7,1.7,0,0,0,1,1.44,4.55,4.55,0,0,0,1.76.55,5.13,5.13,0,0,0,3.09-.54,1.68,1.68,0,0,0,1-1.36A1.71,1.71,0,0,0,342.76,195.87Z"/><path class="cls-14" d="M341.67,193.65a5.23,5.23,0,0,0-3.09-.55,4.49,4.49,0,0,0-1.76.54,1.49,1.49,0,0,0,0,2.82,4.49,4.49,0,0,0,1.76.54,5.15,5.15,0,0,0,3.09-.54,1.7,1.7,0,0,0,1-1.35A1.68,1.68,0,0,0,341.67,193.65Z"/><path class="cls-36" d="M342.77,198.69a5.13,5.13,0,0,1-3.09.54,4.55,4.55,0,0,1-1.76-.55,2.1,2.1,0,0,1-.88-.87,4.41,4.41,0,0,0,1.57.45,5.12,5.12,0,0,0,3.08-.54,1.71,1.71,0,0,0,1-1.34v-1.27a1.7,1.7,0,0,1-1,1.35,5.15,5.15,0,0,1-3.09.54,4.49,4.49,0,0,1-1.76-.54,1.73,1.73,0,0,1-1-1.39c0,.36,0,1.31,0,1.31a1.78,1.78,0,0,0,1,1.33l.07,0c0,.4,0,.85,0,.85a1.8,1.8,0,0,0,1,1.34,4.54,4.54,0,0,0,1.77.55,5.27,5.27,0,0,0,3.08-.54,1.72,1.72,0,0,0,1-1.35.17.17,0,0,0,0-.1v-1.17A1.68,1.68,0,0,1,342.77,198.69Z"/><path class="cls-37" d="M335.82,195s0,0,0,0C335.83,194.93,335.83,194.87,335.82,195Z"/><path class="cls-38" d="M348,208.2v0Z"/><path class="cls-39" d="M353.9,209.65a5.13,5.13,0,0,1-3.09.54,4.55,4.55,0,0,1-1.76-.55,1.75,1.75,0,0,1-1-1.38v1.3a1.78,1.78,0,0,0,1,1.34,4.54,4.54,0,0,0,1.77.55,5.25,5.25,0,0,0,3.08-.54,1.76,1.76,0,0,0,1-1.35v-1.27A1.71,1.71,0,0,1,353.9,209.65Z"/><path class="cls-14" d="M353.89,206.83a5.34,5.34,0,0,0-3.1-.55,4.72,4.72,0,0,0-1.76.55,1.49,1.49,0,0,0,0,2.81,4.55,4.55,0,0,0,1.76.55,5.13,5.13,0,0,0,3.09-.54,1.49,1.49,0,0,0,0-2.82Z"/><path class="cls-21" d="M83.64,143,51.79,124.44A9.8,9.8,0,0,0,53.88,119a6.64,6.64,0,0,0,0-.76s0-1.06,0-2.61h-.09c0-.24.06-.48.07-.72a8.81,8.81,0,0,0-.64-3.5,10.5,10.5,0,0,0-.66-1.57,16.16,16.16,0,0,0-5.9-5.55A35.16,35.16,0,0,0,31.6,100a42.79,42.79,0,0,0-5.31-.05,34.89,34.89,0,0,0-15.37,4.15c-.34.2-.67.4-1,.61a13.72,13.72,0,0,0-5.67,6.47,8.89,8.89,0,0,0-.64,3c0,.23,0,.47,0,.71a5.62,5.62,0,0,0,.06.56l0,.2H3.61v3.4c.29,3.53,2.73,7,7.41,9.72a34.33,34.33,0,0,0,13,4c7.79.89,16.14-.36,22.23-3.74a1.43,1.43,0,0,0,.43.48L80.33,149l.11.06a1.82,1.82,0,0,0,1.69-.2,5.45,5.45,0,0,0,2.46-4.26A1.6,1.6,0,0,0,83.64,143Z"/><path class="cls-40" d="M50.29,115.41H47.62A17.92,17.92,0,0,1,43,119.1c-9.78,5.63-25.66,5.61-35.52,0a18.94,18.94,0,0,1-4.65-3.66H0c0,2,0,3.39,0,3.39.29,3.53,2.73,7,7.41,9.73a34.74,34.74,0,0,0,13,4c7.94.9,16.46-.41,22.59-3.94,4.7-2.71,7.11-6.24,7.27-9.8a6.6,6.6,0,0,0,0-.76S50.28,117,50.29,115.41Z"/><path class="cls-24" d="M0,114.64c0,.18,0,.37.06.56s.08.47.11.63c.09.4.14.58.2.77A8.79,8.79,0,0,0,1,118.08c.14.28.26.5.39.73a16.49,16.49,0,0,0,6,5.58c9.93,5.68,25.81,5.7,35.59.06,4.69-2.7,7.1-6.22,7.27-9.77a8.76,8.76,0,0,0-.64-3.49,10.18,10.18,0,0,0-.66-1.58,16.08,16.08,0,0,0-5.9-5.55A35.12,35.12,0,0,0,28,99.79a42.75,42.75,0,0,0-5.31-.05,34.89,34.89,0,0,0-15.37,4.15c-.34.2-.67.4-1,.61A13.64,13.64,0,0,0,.66,111a8.42,8.42,0,0,0-.64,3C0,114.16,0,114.4,0,114.64Z"/><path class="cls-11" d="M3.21,114.6a3.93,3.93,0,0,0,.06.48,4.93,4.93,0,0,0,.09.54c.07.34.12.5.16.66a8.7,8.7,0,0,0,.5,1.26,6.92,6.92,0,0,0,.34.62,13.84,13.84,0,0,0,5.16,4.77c8.48,4.85,22,4.87,30.38.06,4-2.31,6.06-5.32,6.22-8.35a7.75,7.75,0,0,0-.55-3,8.16,8.16,0,0,0-.57-1.34,13.79,13.79,0,0,0-5-4.74,30.1,30.1,0,0,0-12.88-3.65,38.21,38.21,0,0,0-4.54,0,29.81,29.81,0,0,0-13.12,3.54c-.29.17-.57.35-.85.53a11.61,11.61,0,0,0-4.83,5.52A7.33,7.33,0,0,0,3.2,114C3.2,114.2,3.2,114.4,3.21,114.6Z"/><path class="cls-8" d="M27.15,107.09a5.35,5.35,0,0,1-4.88,0c-1.35-.78-1.36-2,0-2.83a5.37,5.37,0,0,1,4.89,0C28.49,105,28.5,106.31,27.15,107.09Z"/><path class="cls-8" d="M32.57,107.17a2.23,2.23,0,0,1-2,0,.63.63,0,0,1,0-1.19,2.26,2.26,0,0,1,2,0C33.13,106.32,33.13,106.85,32.57,107.17Z"/><path class="cls-24" d="M76.06,147.24A5.44,5.44,0,0,1,78.52,143,1.93,1.93,0,0,1,80,142.7L46.76,123.36a1.65,1.65,0,0,0-1.91.06,5.46,5.46,0,0,0-2.46,4.27,1.76,1.76,0,0,0,.67,1.55l33.67,19.55A1.76,1.76,0,0,1,76.06,147.24Z"/><path class="cls-41" d="M80,142.7a1.93,1.93,0,0,0-1.52.28,5.44,5.44,0,0,0-2.46,4.26,1.76,1.76,0,0,0,.67,1.55l.11.06a1.77,1.77,0,0,0,1.68-.2A5.45,5.45,0,0,0,81,144.39,1.61,1.61,0,0,0,80,142.7Z"/><path class="cls-7" d="M82.88,81.51a2.17,2.17,0,0,1-1.55,1.2,4.52,4.52,0,0,1-2.65,0c-.92-.29-1.42-.78-1.52-1.3a2.05,2.05,0,0,0-1-1.4l-1.06-.57a1.33,1.33,0,0,0-.3-.11,1,1,0,0,0-.68.13l-7,4.06a1.84,1.84,0,0,1-1.71,0l-6.76-3.92-.07,0a.32.32,0,0,1-.15-.23v.52a.14.14,0,0,0,0,.09.3.3,0,0,0,.13.19l6.86,4a1.84,1.84,0,0,0,1.71,0l7.17-4.16a.34.34,0,0,1,.17-.05,1.32,1.32,0,0,1,.63.13l1.06.57a2.05,2.05,0,0,1,1,1.41c.1.51.61,1,1.53,1.3a4.53,4.53,0,0,0,2.75,0c1.08-.36,1.57-1,1.48-1.62v-.5A1.12,1.12,0,0,1,82.88,81.51Z"/><path class="cls-7" d="M48.83,73.43v.07a.17.17,0,0,1,0-.07Z"/><path class="cls-7" d="M81.94,66.75a3.81,3.81,0,0,1-1.93.62,5.75,5.75,0,0,0-2.42.57l-1,.61a.35.35,0,0,0,0,.6s1-.58,1-.58A5.91,5.91,0,0,1,80,68a3.63,3.63,0,0,0,1.93-.62,1.28,1.28,0,0,0,.61-1.06v-.58a1.57,1.57,0,0,1,0,.3A1.48,1.48,0,0,1,81.94,66.75Z"/><path class="cls-7" d="M63.44,74.83a4.68,4.68,0,0,0-3.6,0,1.72,1.72,0,0,0-1.07,1.12,2,2,0,0,1-1,1.41l-1.05.56-.14.06-.14,0h-.34a.54.54,0,0,1-.28-.08L49.35,74.2a1.07,1.07,0,0,1-.43-.41.72.72,0,0,1-.09-.27v.53a.89.89,0,0,0,.52.77l6.48,3.76a.54.54,0,0,0,.28.08,1.33,1.33,0,0,0,.61-.13L57.78,78a2,2,0,0,0,1-1.4,1.7,1.7,0,0,1,1.07-1.12,4.64,4.64,0,0,1,3.6,0,1.88,1.88,0,0,1,1.06,1C64.69,75.89,64.34,75.25,63.44,74.83Z"/><path class="cls-7" d="M83.78,74.16v-.57a.47.47,0,0,1-.14.29,1.26,1.26,0,0,1-.17.13l-6.73,3.9a.39.39,0,0,0,.21.42l.07,0,6.45-3.74a.51.51,0,0,0,.31-.43Z"/><path class="cls-7" d="M64,69.49A4.12,4.12,0,0,0,62.27,69a6,6,0,0,1-2.46-.58l-.92-.57-.06,0a.55.55,0,0,1-.17-.17.22.22,0,0,1,0-.13V68a.39.39,0,0,0,.22.42l1,.62a6.14,6.14,0,0,0,2.46.58,4,4,0,0,1,1.69.48,1.62,1.62,0,0,1,.79.87C64.92,70.47,64.66,69.9,64,69.49Z"/><path class="cls-24" d="M77,78.33a.39.39,0,0,1-.21-.42L83.47,74a1.26,1.26,0,0,0,.17-.13.47.47,0,0,0,.14-.29.58.58,0,0,0-.32-.48l-6.81-4a.35.35,0,0,1-.06-.59l1-.63A5.75,5.75,0,0,1,80,67.37a3.81,3.81,0,0,0,1.93-.62A1.48,1.48,0,0,0,82.5,66a1.57,1.57,0,0,0,0-.3,1.34,1.34,0,0,0-.64-1.07,4.43,4.43,0,0,0-4.32-.16,1.53,1.53,0,0,0-.81,1,2.08,2.08,0,0,1-1,1.43l-1.05.56-.19.08a1.19,1.19,0,0,1-.92-.13l-4.52-2.63-.31-.18,0,0-1.62-.94a2.25,2.25,0,0,0-2.23,0L62.84,65l-4.1,2.37a.24.24,0,0,0-.12.2.22.22,0,0,0,0,.13.44.44,0,0,0,.17.16l.06,0,.92.57a6,6,0,0,0,2.46.58,4.12,4.12,0,0,1,1.69.48c.7.41,1,1,.79,1.5a2.13,2.13,0,0,1-1.54,1.2,4.44,4.44,0,0,1-2.65,0c-.92-.29-1.43-.78-1.53-1.29a2.05,2.05,0,0,0-1-1.41L57,68.9a1.36,1.36,0,0,0-.75-.12l-6.88,4a.88.88,0,0,0-.5.67.17.17,0,0,0,0,.07.7.7,0,0,0,.09.29,1.07,1.07,0,0,0,.43.41L55.83,78a.54.54,0,0,0,.28.08h.34l.1,0a.57.57,0,0,0,.17-.07l1.06-.56a2,2,0,0,0,1-1.41,1.72,1.72,0,0,1,1.07-1.12,4.68,4.68,0,0,1,3.6,0c.9.42,1.25,1.06,1.06,1.64a1.68,1.68,0,0,1-.78.87,4,4,0,0,1-1.69.47,6.05,6.05,0,0,0-2.45.57l-1,.61-.09.07a.28.28,0,0,0-.09.26.32.32,0,0,0,.15.23l.07,0,6.76,3.92a1.84,1.84,0,0,0,1.71,0l7-4.06a1,1,0,0,1,.68-.13,1.1,1.1,0,0,1,.29.11l1.07.57a2.05,2.05,0,0,1,1,1.4c.1.52.6,1,1.52,1.3a4.52,4.52,0,0,0,2.65,0,2.17,2.17,0,0,0,1.55-1.2,1.12,1.12,0,0,0,.05-.36A1.48,1.48,0,0,0,82.08,80a4,4,0,0,0-1.68-.48A6.1,6.1,0,0,1,77.94,79L77,78.37l-.06,0Z"/><path class="cls-7" d="M93.74,186.18a.65.65,0,0,1-.33.4l-7.13,4.14a.4.4,0,0,0,.22.44l.24.15,6.67-3.87a.54.54,0,0,0,.33-.53Z"/><path class="cls-7" d="M72.74,181.8a4.25,4.25,0,0,0-1.79-.51,6.42,6.42,0,0,1-2.6-.61l-1-.65a.38.38,0,0,1-.16-.23v.74a.35.35,0,0,0,.15.34l1,.66a6.59,6.59,0,0,0,2.6.61,4.25,4.25,0,0,1,1.79.51,1.8,1.8,0,0,1,.8.83C73.79,182.9,73.53,182.26,72.74,181.8Z"/><path class="cls-7" d="M72.19,187.45a4.94,4.94,0,0,0-3.81,0,1.79,1.79,0,0,0-1.13,1.18,2.12,2.12,0,0,1-1.06,1.49l-1.11.6a1.4,1.4,0,0,1-.55.14.93.93,0,0,1-.46-.12l-6.81-3.95a.94.94,0,0,1-.55-.75v.84a1,1,0,0,0,.55.77L64,191.52a1.19,1.19,0,0,0,.94.12.75.75,0,0,0,.18-.07l1.12-.6a2.12,2.12,0,0,0,1.06-1.49,1.78,1.78,0,0,1,1.13-1.19,5,5,0,0,1,3.81,0,2,2,0,0,1,1.08,1C73.55,188.65,73.19,187.92,72.19,187.45Z"/><path class="cls-7" d="M91.32,195.74a4.68,4.68,0,0,1-3,0c-1-.31-1.51-.83-1.62-1.37a2.17,2.17,0,0,0-1.07-1.49l-1.12-.6a1.42,1.42,0,0,0-.77-.14l-7.68,4.45a1.88,1.88,0,0,1-1.8,0l-7.2-4.17a.33.33,0,0,1-.17-.32s0,.9,0,.9a.35.35,0,0,0,.18.28l7.2,4.17a1.91,1.91,0,0,0,1.8,0L83.76,193a1.51,1.51,0,0,1,.77.13s1.12.61,1.12.61a2.17,2.17,0,0,1,1.07,1.49c.11.54.65,1.06,1.62,1.37a4.68,4.68,0,0,0,3,0c1-.37,1.54-1,1.51-1.6v-.74C92.8,194.83,92.3,195.4,91.32,195.74Z"/><path class="cls-7" d="M91.79,178.89a4,4,0,0,1-2.05.66,6.07,6.07,0,0,0-2.56.61l-1,.64c-.22.15-.29.33-.21.51l.4.23.84-.52a6.23,6.23,0,0,1,2.56-.62,3.87,3.87,0,0,0,2.05-.65,1.36,1.36,0,0,0,.64-1.14v-.77A1.39,1.39,0,0,1,91.79,178.89Z"/><path class="cls-24" d="M86.5,191.16a.4.4,0,0,1-.22-.44l7.13-4.14a.65.65,0,0,0,.33-.4c0-.2-.08-.39-.34-.54l-7.06-4.1-.4-.23a.39.39,0,0,1,.2-.5l1-.65a6.07,6.07,0,0,1,2.56-.61,4,4,0,0,0,2.05-.66,1.26,1.26,0,0,0,0-2.21,4.7,4.7,0,0,0-4.58-.17,1.63,1.63,0,0,0-.86,1,2.17,2.17,0,0,1-1,1.51l-1.11.6a1.5,1.5,0,0,1-.87.12l-5.1-3-.33-.19.06,0-1.71-1a2.39,2.39,0,0,0-2.37,0L71.55,177l-4.24,2.46a.34.34,0,0,0,0,.58l1,.66a6.42,6.42,0,0,0,2.6.61,4.25,4.25,0,0,1,1.79.51c.79.46,1.05,1.1.8,1.69a2.23,2.23,0,0,1-1.42,1.11,4.68,4.68,0,0,1-3,0c-1-.31-1.51-.83-1.62-1.37a2.17,2.17,0,0,0-1.07-1.49l-1.12-.6a1.18,1.18,0,0,0-.46-.14.85.85,0,0,0-.54.13l-7.08,4.09a.89.89,0,0,0-.54.77.94.94,0,0,0,.55.75l6.81,3.95a.93.93,0,0,0,.46.12,1.3,1.3,0,0,0,.54-.14l1.12-.6a2.12,2.12,0,0,0,1.06-1.49,1.79,1.79,0,0,1,1.13-1.18,4.94,4.94,0,0,1,3.81,0c1,.47,1.36,1.2,1.08,1.85a1.74,1.74,0,0,1-.79.81,4.1,4.1,0,0,1-1.78.5,6.26,6.26,0,0,0-2.6.61l-1,.64a.35.35,0,0,0-.16.29.33.33,0,0,0,.17.32l7.2,4.17a1.88,1.88,0,0,0,1.8,0l7.68-4.45a1.51,1.51,0,0,1,.77.13l1.12.61a2.17,2.17,0,0,1,1.07,1.49c.11.54.65,1.06,1.62,1.37a4.68,4.68,0,0,0,3,0c1-.34,1.48-.91,1.51-1.48a1.49,1.49,0,0,0-.89-1.32,4.25,4.25,0,0,0-1.79-.51,6.42,6.42,0,0,1-2.6-.61l-.81-.51-.23-.14Z"/><path class="cls-7" d="M268.55,34.34a.75.75,0,0,1,0,.15Z"/><path class="cls-7" d="M225.59,13.91l-1.58-1a9.44,9.44,0,0,0-3.89-.94A6.1,6.1,0,0,1,217,11a2.23,2.23,0,0,1-1-1.49v1.09a2,2,0,0,0,1,1.78,6,6,0,0,0,3.11,1,9.77,9.77,0,0,1,3.89.94l1.06.67.87-.5A.67.67,0,0,0,225.59,13.91Z"/><path class="cls-7" d="M270.65,23.2V21.85a.86.86,0,0,1-.51.72l-11.53,6.7a.68.68,0,0,0,.36.53l.53.33L270.15,24A.82.82,0,0,0,270.65,23.2Z"/><path class="cls-7" d="M238,23.89a7.48,7.48,0,0,0-5.78,0,2.73,2.73,0,0,0-1.71,1.8,3.24,3.24,0,0,1-1.6,2.25l-1.68.9A2.18,2.18,0,0,1,226,29l-10.59-6.13a1.45,1.45,0,0,1-.83-1.14v1.44a1.53,1.53,0,0,0,.84,1.08L226,30.39a2.17,2.17,0,0,0,1.25-.18l1.69-.91a3.27,3.27,0,0,0,1.6-2.25,2.68,2.68,0,0,1,1.71-1.8,7.41,7.41,0,0,1,5.77,0,3.11,3.11,0,0,1,1.62,1.43C240.09,25.72,239.55,24.61,238,23.89Z"/><path class="cls-7" d="M265.86,36.85a7.09,7.09,0,0,1-3.85,0c-1.64-.45-2.55-1.29-2.72-2.16a3.29,3.29,0,0,0-1.62-2.26l-1.69-.9a1.93,1.93,0,0,0-.93-.22l-11.14,6.46a2.94,2.94,0,0,1-2.74,0l-10.87-6.3a.58.58,0,0,1-.28-.44v1.29a.61.61,0,0,0,.28.53l10.88,6.3a3,3,0,0,0,2.74,0l11.14-6.47a2.14,2.14,0,0,1,.92.21l1.7.92a3.28,3.28,0,0,1,1.62,2.25c.17.87,1.07,1.71,2.72,2.16a7.09,7.09,0,0,0,3.85,0c1.85-.54,2.74-1.55,2.68-2.55V34.51C268.49,35.44,267.59,36.36,265.86,36.85Z"/><path class="cls-7" d="M267.69,10.93a5.94,5.94,0,0,1-3.1,1,9.36,9.36,0,0,0-3.88.93l-1.55,1c-.34.22-.44.5-.32.77l.68.39,1.2-.75a9.36,9.36,0,0,1,3.88-.93,6,6,0,0,0,3.1-1,2.06,2.06,0,0,0,1-1.74V9.27A2.09,2.09,0,0,1,267.69,10.93Z"/><path class="cls-24" d="M259,29.8a.68.68,0,0,1-.36-.53l11.53-6.7a.86.86,0,0,0,.51-.72.91.91,0,0,0-.52-.71L259.52,15l-.68-.39a.59.59,0,0,1,.31-.76l1.56-1a9.36,9.36,0,0,1,3.88-.93,5.94,5.94,0,0,0,3.1-1,2.09,2.09,0,0,0,1-1.66,2.19,2.19,0,0,0-1-1.69,7.11,7.11,0,0,0-6.94-.26,2.49,2.49,0,0,0-1.3,1.57,3.26,3.26,0,0,1-1.59,2.28l-1.68.9a2.27,2.27,0,0,1-1.32.19l-7.71-4.48-.5-.29.09.06L244.1,6a3.6,3.6,0,0,0-3.58,0l-3.47,2-7.5,4.34a2.15,2.15,0,0,1-1-.21l-1.71-.91A3.35,3.35,0,0,1,225.27,9,2.5,2.5,0,0,0,224,7.4a7.09,7.09,0,0,0-6.93.23,2,2,0,0,0-1,1.86A2.23,2.23,0,0,0,217,11a6.1,6.1,0,0,0,3.11,1,9.44,9.44,0,0,1,3.89.94l1.57,1a.69.69,0,0,1,.37.57l-.87.5-9.69,5.61a1.4,1.4,0,0,0-.81,1.09,1.45,1.45,0,0,0,.83,1.21L226,29a2.22,2.22,0,0,0,1.24-.18l1.69-.91a3.24,3.24,0,0,0,1.6-2.25,2.73,2.73,0,0,1,1.71-1.8,7.48,7.48,0,0,1,5.78,0c1.53.72,2.07,1.83,1.62,2.82a2.76,2.76,0,0,1-1.18,1.2,6.34,6.34,0,0,1-2.7.76,9.81,9.81,0,0,0-3.94.92l-1.55,1a.55.55,0,0,0-.25.5.58.58,0,0,0,.28.44l10.87,6.3a2.94,2.94,0,0,0,2.74,0l11.14-6.46a2,2,0,0,1,.92.21l1.7.91a3.29,3.29,0,0,1,1.62,2.26c.17.87,1.08,1.71,2.72,2.16a7.09,7.09,0,0,0,3.85,0c1.73-.49,2.63-1.41,2.69-2.34a1,1,0,0,0,0-.17,2.36,2.36,0,0,0-1.35-1.85,6.39,6.39,0,0,0-2.71-.77,9.9,9.9,0,0,1-3.95-.93l-1-.66L259,29.8Z"/><path class="cls-11" d="M351.71,141.15,194,49.62a41.43,41.43,0,0,0-34.34-3.33L159,45.9l-4.1,2.37q-1.27.63-2.52,1.35L85.88,88.19l.1.06L69.65,97.72a13.26,13.26,0,0,0,0,22.92l155,89.91a45.59,45.59,0,0,0,45.76,0l83.07-48.2-.22-.14A12.78,12.78,0,0,0,351.71,141.15Z"/><path class="cls-42" d="M352.25,140.29,194.22,49a41.64,41.64,0,0,0-35.19-3l-.67-.41L69.54,96.87a13.21,13.21,0,0,0-4.93,17.89,13.05,13.05,0,0,1,4.93-5L96.21,94.37l0,0,56.28-32.52a41.68,41.68,0,0,1,41.69,0l158,91.33a12.65,12.65,0,0,1,4.6,4.56A12.74,12.74,0,0,0,352.25,140.29Z"/><path class="cls-21" d="M314.22,246.7l-13-7.58a4.11,4.11,0,0,0-4.15,0L284.68,250l10.39,7.48h6.29l12.9-8A1.64,1.64,0,0,0,314.22,246.7Z"/><path class="cls-43" d="M308.14,212.76H281v37a1,1,0,0,0,.48.84l11.42,6.63a3.38,3.38,0,0,0,3.37,0l11.38-6.61a.94.94,0,0,0,.47-.86h.07Z"/><path class="cls-24" d="M292.86,220.29l-11.41-6.63a1,1,0,0,1,0-1.69l11.47-6.66a3.06,3.06,0,0,1,3.07,0l11.62,6.75a.93.93,0,0,1,0,1.62l-11.37,6.61A3.4,3.4,0,0,1,292.86,220.29Z"/><path class="cls-11" d="M293.42,217.78,285.19,213a.7.7,0,0,1,0-1.22l8.27-4.8a2.19,2.19,0,0,1,2.21,0l8.38,4.86a.68.68,0,0,1,0,1.17l-8.2,4.76A2.4,2.4,0,0,1,293.42,217.78Z"/><path class="cls-44" d="M285.18,212.43l8.29-4.79a2.2,2.2,0,0,1,2.22,0l8.39,4.85a.72.72,0,0,1,.25.24.68.68,0,0,0-.25-.93L295.69,207a2.25,2.25,0,0,0-2.22,0l-8.29,4.79a.7.7,0,0,0-.26.95A.81.81,0,0,1,285.18,212.43Z"/><path class="cls-45" d="M291.57,248.38l-6.81-3.95a1.69,1.69,0,0,1-.84-1.47V220.24l-.09-.05a.66.66,0,0,0-1,.57V243.7a1.7,1.7,0,0,0,.85,1.47l6.8,4a1,1,0,0,0,1.48-.62A.88.88,0,0,1,291.57,248.38Z"/><path class="cls-11" d="M292,226.16a2.1,2.1,0,0,0-1-1.82l-7.05-4.1V243a1.69,1.69,0,0,0,.84,1.47l6.81,3.95a.88.88,0,0,0,.41.12,1.09,1.09,0,0,0,0-.26Z"/><path class="cls-46" d="M285.8,242.42a1.07,1.07,0,0,1-.44-.85V223.5c0-.33.2-.48.44-.34a1.07,1.07,0,0,1,.45.85v18.07C286.25,242.41,286.05,242.56,285.8,242.42Z"/><path class="cls-47" d="M287.62,243.42a1,1,0,0,1-.44-.83V230.72c0-.32.2-.47.44-.33a1.07,1.07,0,0,1,.43.83v11.87C288.05,243.41,287.85,243.56,287.62,243.42Z"/><path class="cls-48" d="M289.47,226.7c-.23-.14-.43,0-.43.33v16.7a1.07,1.07,0,0,0,.43.83c.24.13.44,0,.44-.33v-16.7A1,1,0,0,0,289.47,226.7Z"/><path class="cls-14" d="M286,252l2,1.14c.26.15.47,0,.47-.36a1.14,1.14,0,0,0-.47-.91l-2-1.14c-.26-.15-.47,0-.47.36A1.14,1.14,0,0,0,286,252Z"/><path class="cls-49" d="M125.74,181c1,.55,1.74.1,1.74-1a3.83,3.83,0,0,0-1.74-3s0-1,0-1a5.69,5.69,0,0,1,2.59,4.46c0,1.63-1.15,2.29-2.57,1.47,0,0,0-1,0-1Z"/><path class="cls-15" d="M125.76,176v1c-.94-.54-1.71-.1-1.72,1l-.83-.48C123.22,175.87,124.36,175.22,125.76,176Z"/><path class="cls-12" d="M225.4,198c-12.64-7.34-12.7-19.24-.14-26.52s33.06-7.25,45.7.08,12.71,19.23.14,26.52S238,205.31,225.4,198Zm44.06-25.57c-11.81-6.85-31-6.88-42.69-.08s-11.67,17.92.13,24.77,31,6.89,42.69.08S281.27,179.26,269.46,172.41Z"/><path class="cls-12" d="M234.19,192.88c-7.76-4.51-7.8-11.82-.09-16.29s20.31-4.46,28.07,0,7.8,11.81.09,16.29S242,197.38,234.19,192.88Zm27.23-15.81c-7.35-4.26-19.26-4.28-26.56,0s-7.27,11.15.08,15.41,19.26,4.28,26.56.05S268.77,181.34,261.42,177.07Z"/><path class="cls-14" d="M272.91,196.15a5.82,5.82,0,0,0-5.31,0l-.14.1c-10.73,6-28,6-38.68-.22s-10.82-16.38-.12-22.59,27.83-6.17,38.62-.1l.07.06.16.07.08,0a5.88,5.88,0,0,0,5.07-.1c1.39-.81,1.43-2.09.18-2.94l0,0-.15-.1a1.64,1.64,0,0,0-.3-.14c-13.71-7.66-35.53-7.61-49,.18-13.59,7.89-13.53,20.77.16,28.71,13.53,7.85,35.4,8,49,.32a2.37,2.37,0,0,0,.36-.17C274.38,198.38,274.38,197,272.91,196.15Z"/><path class="cls-50" d="M263.42,175.91c-8.4-4.87-22-4.93-30.42-.14,0,0,0,0-.05,0-.9.52-.89,1.36,0,1.89a3.6,3.6,0,0,0,3.26,0l.09-.06c6.63-3.73,17.27-3.67,23.86.15s6.69,10.12.08,14-17.41,3.81-24.06,0a3.6,3.6,0,0,0-3.29,0,1,1,0,0,0,0,1.89c8.49,4.93,22.2,4.95,30.6.07S271.88,180.82,263.42,175.91Z"/><polygon class="cls-12" points="89.59 114.31 134.59 140.42 134.98 140.2 89.98 114.09 89.59 114.31"/><polygon class="cls-12" points="98.76 108.99 143.76 135.1 144.15 134.88 99.15 108.77 98.76 108.99"/><polygon class="cls-12" points="108.33 103.44 153.32 129.55 153.71 129.33 108.72 103.22 108.33 103.44"/><polygon class="cls-12" points="117.55 98.09 162.55 124.2 162.94 123.97 117.94 97.86 117.55 98.09"/><polygon class="cls-12" points="125.39 93.54 170.39 119.65 170.78 119.42 125.78 93.31 125.39 93.54"/><polygon class="cls-12" points="133.31 88.95 178.31 115.06 178.7 114.83 133.7 88.72 133.31 88.95"/><path class="cls-51" d="M141.06,133.18a3,3,0,0,1-2.64.12l-27.85-16.16c-.67-.39-.58-1.08.19-1.52a2.91,2.91,0,0,1,2.64-.12l27.85,16.15C141.92,132,141.83,132.73,141.06,133.18Z"/><path class="cls-52" d="M175.76,113.27a2.91,2.91,0,0,1-2.64.12l-22.94-13.31c-.67-.39-.59-1.08.19-1.53a2.94,2.94,0,0,1,2.64-.11L176,111.75C176.62,112.14,176.53,112.82,175.76,113.27Z"/><path class="cls-53" d="M159.68,122.37a2.91,2.91,0,0,1-2.64.12l-17-9.9c-.67-.39-.58-1.07.19-1.52a2.91,2.91,0,0,1,2.64-.12l17.05,9.9C160.54,121.24,160.46,121.92,159.68,122.37Z"/><path class="cls-14" d="M129.65,137.14a2.91,2.91,0,0,1-2.64.12l-1.68-1c-.67-.39-.59-1.07.19-1.52a2.91,2.91,0,0,1,2.64-.12l1.68,1C130.51,136,130.43,136.69,129.65,137.14Z"/><path class="cls-14" d="M146.86,125.45a2.94,2.94,0,0,1-2.64.11L134.66,120c-.67-.39-.59-1.08.19-1.53a2.92,2.92,0,0,1,2.63-.12l9.57,5.55C147.72,124.31,147.63,125,146.86,125.45Z"/><path class="cls-12" d="M192.31,157.73a.89.89,0,0,1-.81,0c-.23-.13-.23-.34,0-.47a.91.91,0,0,1,.82,0A.25.25,0,0,1,192.31,157.73Z"/><path class="cls-12" d="M194.43,159a.91.91,0,0,1-.82,0,.25.25,0,0,1,0-.47.91.91,0,0,1,.82,0A.26.26,0,0,1,194.43,159Z"/><path class="cls-12" d="M196.55,160.2a.91.91,0,0,1-.82,0,.26.26,0,0,1,0-.48.88.88,0,0,1,.82,0A.25.25,0,0,1,196.55,160.2Z"/><path class="cls-12" d="M198.66,161.43a.89.89,0,0,1-.81,0c-.23-.13-.23-.34,0-.47a.89.89,0,0,1,.81,0C198.89,161.09,198.89,161.3,198.66,161.43Z"/><path class="cls-12" d="M200.78,162.67a.89.89,0,0,1-.81,0c-.23-.13-.23-.34,0-.47a.89.89,0,0,1,.81,0A.25.25,0,0,1,200.78,162.67Z"/><path class="cls-12" d="M202.9,163.9a.89.89,0,0,1-.81,0c-.23-.14-.23-.35,0-.48a.88.88,0,0,1,.82,0A.25.25,0,0,1,202.9,163.9Z"/><path class="cls-12" d="M205,165.13a.91.91,0,0,1-.82,0,.25.25,0,0,1,0-.47.91.91,0,0,1,.82,0A.25.25,0,0,1,205,165.13Z"/><path class="cls-12" d="M207.14,166.36a.91.91,0,0,1-.82,0,.25.25,0,0,1,0-.47.89.89,0,0,1,.81,0C207.36,166,207.36,166.23,207.14,166.36Z"/><path class="cls-12" d="M209.25,167.6a.89.89,0,0,1-.81,0c-.23-.14-.23-.35,0-.48a.89.89,0,0,1,.81,0C209.48,167.26,209.48,167.47,209.25,167.6Z"/><path class="cls-12" d="M211.37,168.83a.89.89,0,0,1-.81,0c-.23-.13-.23-.34,0-.47a.89.89,0,0,1,.81,0C211.6,168.49,211.6,168.7,211.37,168.83Z"/><polygon class="cls-12" points="204.42 151.19 196.49 155.78 195.47 155.18 203.4 150.6 204.42 151.19"/><polygon class="cls-12" points="206.41 152.35 198.48 156.94 197.46 156.34 205.39 151.76 206.41 152.35"/><polygon class="cls-12" points="208.41 153.51 200.48 158.1 199.46 157.5 207.39 152.92 208.41 153.51"/><polygon class="cls-12" points="216.84 150.95 202.47 159.26 201.45 158.67 215.82 150.36 216.84 150.95"/><polygon class="cls-12" points="217.67 154.74 209.74 159.32 208.72 158.73 216.65 154.15 217.67 154.74"/><polygon class="cls-12" points="219.66 155.9 211.73 160.49 210.71 159.89 218.64 155.31 219.66 155.9"/><polygon class="cls-12" points="221.66 157.06 213.73 161.65 212.71 161.06 220.64 156.47 221.66 157.06"/><polygon class="cls-12" points="220.6 140.65 204.41 150.01 205.44 150.6 221.63 141.24 220.6 140.65"/><polygon class="cls-12" points="222.45 143.08 207.43 151.76 206.41 151.17 221.43 142.48 222.45 143.08"/><polygon class="cls-12" points="224.61 142.96 208.41 152.33 209.43 152.93 225.64 143.55 224.61 142.96"/><polygon class="cls-12" points="226.62 144.12 218.5 148.81 219.52 149.41 227.64 144.71 226.62 144.12"/><polygon class="cls-12" points="230.31 146.25 217.66 153.56 218.69 154.15 231.33 146.84 230.31 146.25"/><polygon class="cls-12" points="232.31 147.4 219.66 154.72 220.68 155.31 233.34 148 232.31 147.4"/><polygon class="cls-12" points="234.32 148.56 221.66 155.88 222.68 156.48 235.34 149.15 234.32 148.56"/><polygon class="cls-12" points="228.44 155.95 220.51 160.53 219.49 159.94 227.42 155.35 228.44 155.95"/><polygon class="cls-12" points="236.74 149.96 228.45 154.75 229.47 155.34 237.76 150.55 236.74 149.96"/><polygon class="cls-12" points="238.75 151.12 221.49 161.1 222.51 161.7 239.78 151.71 238.75 151.12"/><polygon class="cls-12" points="240.76 152.28 223.49 162.26 224.51 162.86 241.78 152.87 240.76 152.28"/><polygon class="cls-12" points="188.29 159.36 181.81 163.1 182.84 163.7 189.31 159.95 188.29 159.36"/><polygon class="cls-12" points="190.28 160.52 183.81 164.26 184.83 164.86 191.31 161.12 190.28 160.52"/><polygon class="cls-12" points="194.28 162.84 184.48 168.51 185.5 169.1 195.3 163.44 194.28 162.84"/><polygon class="cls-12" points="188.16 170.65 189.18 171.24 196.84 166.81 195.82 166.22 188.16 170.65"/><polygon class="cls-12" points="178.49 165.02 179.51 165.62 181.82 164.29 180.8 163.69 178.49 165.02"/><polygon class="cls-12" points="180.49 166.19 181.51 166.78 183.81 165.45 182.79 164.85 180.49 166.19"/><polygon class="cls-12" points="194.57 174.38 195.59 174.98 198.88 173.07 197.86 172.47 194.57 174.38"/><polygon class="cls-12" points="196.56 175.54 197.58 176.14 200.88 174.23 199.86 173.64 196.56 175.54"/><path class="cls-54" d="M175.05,143l-.08,0-.1-.05c-6.88-3.81-17.76-3.79-24.48.09l4.07,2.31c4.58-2.61,12-2.6,16.59,0s4.57,7,0,9.69-12.14,2.66-16.78,0a.47.47,0,0,0-.09-.06l-4,2.32.1.05c6.85,4,18,4,24.79,0S181.83,147,175.05,143Z"/><path class="cls-12" d="M154.44,145.3l-.08,0c-4.58,2.66-4.58,7,0,9.68l-4,2.32c-6.76-4-6.76-10.4,0-14.33C150.37,143,154.44,145.3,154.44,145.3Z"/><path class="cls-12" d="M182.05,139.59c4.64,2.69,12.17,2.7,16.78,0s4.59-7.05-.05-9.74l-.11,0,4-2.32.1,0c6.86,4,6.89,10.44.08,14.39s-17.94,3.93-24.79,0l-.1-.06,4-2.32Z"/><path class="cls-14" d="M202.84,127.61l-4,2.32c-4.62-2.62-12-2.63-16.6,0l-4.06-2.31C185,123.68,196,123.69,202.84,127.61Z"/><path class="cls-12" d="M182.24,129.9l-.08,0c-4.58,2.66-4.58,7,0,9.68l-4,2.32c-6.76-4-6.76-10.39,0-14.33C178.17,127.59,182.24,129.9,182.24,129.9Z"/><path class="cls-21" d="M40.7,180l-10-5.82a3.19,3.19,0,0,0-3.19,0L18,182.57l8,5.74h4.82l9.91-6.13A1.26,1.26,0,0,0,40.7,180Z"/><path class="cls-55" d="M36,153.89H15.14v28.42a.75.75,0,0,0,.37.65l8.77,5.09a2.6,2.6,0,0,0,2.59,0L35.61,183a.69.69,0,0,0,.36-.66H36Z"/><path class="cls-24" d="M24.29,159.67l-8.77-5.09a.75.75,0,0,1,0-1.29l8.82-5.12a2.37,2.37,0,0,1,2.36,0l8.92,5.18a.72.72,0,0,1,0,1.25l-8.74,5.07A2.56,2.56,0,0,1,24.29,159.67Z"/><path class="cls-56" d="M24.81,158.15l-6.33-3.67a.55.55,0,0,1,0-.94l6.36-3.68a1.67,1.67,0,0,1,1.7,0L33,153.59a.52.52,0,0,1,0,.9l-6.3,3.66A1.87,1.87,0,0,1,24.81,158.15Z"/><path class="cls-57" d="M18.48,154l6.37-3.68a1.67,1.67,0,0,1,1.7,0L33,154.08a.54.54,0,0,1,.18.19.51.51,0,0,0-.18-.71l-6.45-3.73a1.72,1.72,0,0,0-1.7,0l-6.37,3.68a.54.54,0,0,0-.2.73A.48.48,0,0,1,18.48,154Z"/><path class="cls-56" d="M30.32,161.49a1.34,1.34,0,0,1,.55-1.06c.31-.17.56,0,.56.42V171.3l-1.11.61Z"/><path class="cls-58" d="M31.43,171.3v9.25a1.34,1.34,0,0,1-.56,1.06c-.3.17-.55,0-.55-.42v-9.28Z"/><path class="cls-14" d="M28,152.67a5.22,5.22,0,0,0-3.64-.38V153a3.53,3.53,0,0,1,2.9.1,1,1,0,0,1,0,1.81,3.47,3.47,0,0,1-3.14,0s-.76.42-.76.42a5.09,5.09,0,0,0,4.65,0C29.28,154.61,29.28,153.42,28,152.67Z"/><path class="cls-21" d="M123.87,52.9l-10.74-6.26a3.42,3.42,0,0,0-3.43,0l-10.26,9L108,61.82h5.2l10.67-6.6A1.36,1.36,0,0,0,123.87,52.9Z"/><path class="cls-59" d="M118.84,24.84H96.35V55.43a.82.82,0,0,0,.41.7l9.44,5.48a2.78,2.78,0,0,0,2.79,0l9.4-5.46a.77.77,0,0,0,.39-.72h.06Z"/><path class="cls-24" d="M106.21,31.06l-9.44-5.47a.81.81,0,0,1,0-1.4l9.49-5.51a2.54,2.54,0,0,1,2.53,0l9.62,5.58a.79.79,0,0,1,0,1.35L109,31.06A2.74,2.74,0,0,1,106.21,31.06Z"/><path class="cls-45" d="M105.1,53.56l-5.73-3.33A1.45,1.45,0,0,1,98.65,49V29.85l-.07,0a.55.55,0,0,0-.82.48V49.61a1.42,1.42,0,0,0,.71,1.24l5.73,3.33a.86.86,0,0,0,1.25-.52A.88.88,0,0,1,105.1,53.56Z"/><path class="cls-60" d="M105.48,34.84a1.79,1.79,0,0,0-.88-1.54l-5.95-3.45V49a1.45,1.45,0,0,0,.72,1.24l5.73,3.33a.88.88,0,0,0,.35.1.78.78,0,0,0,0-.22Z"/><path class="cls-14" d="M100.91,38.26c0-.63.44-.89,1-.58V36c-1.39-.79-2.52-.15-2.52,1.45l1.53.89Z"/><path class="cls-12" d="M100.91,38.33l-1.53-.89a5.22,5.22,0,0,0,.74,2.52l1.1-.67A2.05,2.05,0,0,1,100.91,38.33Z"/><path class="cls-61" d="M104.45,40.38A5.63,5.63,0,0,0,101.91,36s0,1.68,0,1.68a2.23,2.23,0,0,1,1,1.75c0,.64-.45.9-1,.58a2.17,2.17,0,0,1-.69-.72l-1.1.67a5.26,5.26,0,0,0,1.79,1.89c1.4.82,2.54.16,2.54-1.45Z"/><path class="cls-14" d="M101,45.25c0-.63.44-.89,1-.58V43c-1.39-.79-2.51-.15-2.52,1.45l1.53.89Z"/><path class="cls-12" d="M101,45.32l-1.53-.89a5.22,5.22,0,0,0,.74,2.52l1.11-.67A2.1,2.1,0,0,1,101,45.32Z"/><path class="cls-62" d="M104.52,47.37A5.63,5.63,0,0,0,102,43s0,1.68,0,1.68a2.23,2.23,0,0,1,1,1.75c0,.64-.45.9-1,.58a2.15,2.15,0,0,1-.68-.72l-1.11.67A5.26,5.26,0,0,0,102,48.84c1.41.81,2.54.16,2.54-1.45Z"/><path class="cls-14" d="M107.5,38c0,.2-.14.28-.32.18a.7.7,0,0,1-.32-.56c0-.2.14-.28.32-.18A.7.7,0,0,1,107.5,38Z"/><path class="cls-63" d="M107.5,39.93c0,.2-.14.29-.32.18a.7.7,0,0,1-.32-.56c0-.2.14-.28.32-.18A.7.7,0,0,1,107.5,39.93Z"/><path class="cls-60" d="M107.5,41.87c0,.2-.14.29-.32.18a.69.69,0,0,1-.32-.55c0-.21.14-.29.32-.19A.7.7,0,0,1,107.5,41.87Z"/><path class="cls-12" d="M107.5,43.81c0,.2-.14.29-.32.18a.69.69,0,0,1-.32-.55c0-.21.14-.29.32-.19A.73.73,0,0,1,107.5,43.81Z"/><path class="cls-12" d="M107.5,45.75c0,.21-.14.29-.32.19a.73.73,0,0,1-.32-.56c0-.21.14-.29.32-.19A.73.73,0,0,1,107.5,45.75Z"/><path class="cls-14" d="M101,57.78l-.94-.55a.47.47,0,0,1-.21-.39c0-.15.09-.21.21-.15l.94.55a.49.49,0,0,1,.21.39C101.24,57.78,101.14,57.85,101,57.78Z"/><path class="cls-64" d="M162.69,21.91a76.56,76.56,0,0,1,18.72,15.78l-.6,1.44c2.45,1.73,8.76-.54,10.91,1.87l5-11.92A76.51,76.51,0,0,0,178,13.31q-9-5.2-15.61-4.65a12.51,12.51,0,0,0-5.18,1.57l-14.38,8.13a12.79,12.79,0,0,1,4.26-1.09Q153.72,16.7,162.69,21.91Z"/><path class="cls-65" d="M178.74,70q-13.28-7.71-13.27-27.82c0-1,0-2,.1-2.92-1-.71-2-1.38-3-2q-5.82-3.37-9.09.23t-3.26,13.29q0,20.11,13.26,27.81a28.92,28.92,0,0,0,7.77,3.22,59.6,59.6,0,0,0,7.57,1.3V89c5.62,1.17,11.84,1.16,15.3,1.4V74.5a61.56,61.56,0,0,1-7.56-1.29A29,29,0,0,1,178.74,70Z"/><path class="cls-24" d="M171.2,81.81a28.92,28.92,0,0,1-7.77-3.22q-13.26-7.7-13.26-27.81,0-9.68,3.26-13.29t9.09-.23c1,.61,2.06,1.28,3,2a41.35,41.35,0,0,1,4.15,3.42q3.34,3.19,6.69,6.94l4.4-10.48.6-1.44a76.56,76.56,0,0,0-18.72-15.78q-9-5.2-15.6-4.64a12.79,12.79,0,0,0-4.26,1.09A13,13,0,0,0,136.92,24q-3.54,6.15-3.54,17,0,17.29,7.3,30.68a54.42,54.42,0,0,0,21,21.33Q171.2,98.5,178.77,99V83.11A59.6,59.6,0,0,1,171.2,81.81Z"/><polygon class="cls-66" points="181.41 37.69 196.72 29.08 191.72 41 176.41 49.61 181.41 37.69"/><polygon class="cls-67" points="178.77 83.11 194.07 74.5 194.07 90.42 178.77 99.03 178.77 83.11"/><path class="cls-68" d="M207.81,63l-3.22-1.87V77.05l3,1.78q8.56,5,8.56-3.76Q216.2,67.87,207.81,63Z"/><polygon class="cls-69" points="204.59 91.21 204.59 116.57 215.26 110.34 208.72 93.61 204.59 91.21"/><path class="cls-70" d="M255.64,128.05l-17-39.34,5-2.86,0-.06c3.13-2,4.73-5.65,4.73-11.11,0-8.46-3.21-16.1-9.47-23a50.44,50.44,0,0,0-5.72-5.42,72.21,72.21,0,0,0-9.44-6.52l-19.8-11.48L188.26,37.4,204,46.54l4.06,2.35a71.42,71.42,0,0,1,10.24,7.18A51.68,51.68,0,0,1,223.46,61c.18.2.3.4.47.59a40.47,40.47,0,0,1,2.84,3.58c.07.1.12.21.19.31a34.71,34.71,0,0,1,2.38,4c.15.3.24.61.38.91s.28.64.42,1L226.35,95.6a13.4,13.4,0,0,1-3,.75c-.34,0-.58.19-.93.22l.09.19,17.52,40.39Z"/><path class="cls-24" d="M232.69,83.78a32.8,32.8,0,0,0-.38-5c-.14-.93-.41-1.83-.64-2.75-.16-.67-.27-1.35-.48-2a30.78,30.78,0,0,0-1.47-3.64c-.14-.3-.23-.61-.38-.91a34.71,34.71,0,0,0-2.38-4c-.07-.1-.12-.21-.19-.31a41.75,41.75,0,0,0-3.3-4.16,63,63,0,0,0-15.41-12.1L204,46.54,188.26,37.4v69.7l16.33,9.47V91.21l4.13,2.4,6.54,16.73,6.27,16.06,18.52,10.75L222.44,96.57Q232.7,95.88,232.69,83.78Zm-25.05-5-3-1.78V61.13L207.81,63q8.38,4.88,8.39,12.07Q216.2,83.79,207.64,78.83Z"/><path class="cls-71" d="M296.54,134.1q.06-2.86.56-13.92l-.37-.22-12.2,43,12-6.93V139.36C296.48,137.77,296.5,136,296.54,134.1Z"/><path class="cls-72" d="M256.26,96.38c.58,8.89.87,50.7.87,50.7l9.18-5.58-9.68-44.9Z"/><path class="cls-24" d="M300.63,102.63,289.7,96.29l-2.56,8.78-9.8,33.53-.33-.19L264.4,81.61l-8.58-5L242.66,69v69.69l14.47,8.39s-.29-41.81-.87-50.7l.37.22,9.68,44.9L269,154l15.54,9,12.2-43,.37.22q-.5,11.05-.56,13.92c0,1.92-.06,3.67-.06,5.26v30.56l15,8.7V108.93Z"/><polygon class="cls-73" points="279.85 72.22 258.11 60.02 242.66 69 255.82 76.63 264.4 81.61 277.01 138.41 277.34 138.6 287.14 105.07 279.85 72.22"/><polygon class="cls-74" points="305.16 87.37 305.1 87.33 289.66 96.32 311.4 108.93 311.44 108.91 311.49 108.93 311.49 178.62 326.93 169.67 326.93 99.89 305.16 87.37"/><path class="cls-75" d="M283.49,52.21a4.6,4.6,0,0,0,2.27,4.4l49.15,28.81a12.14,12.14,0,0,0,12.13.09L378,68a4.27,4.27,0,0,0,2.16-3.94c.05,0,.05,9.56.05,9.56A4.38,4.38,0,0,1,378,77.22L347,94.72a12.14,12.14,0,0,1-12.13-.09L285.76,65.82a4.59,4.59,0,0,1-2.29-4V52.21Z"/><path class="cls-14" d="M378,68,347,85.51a12.14,12.14,0,0,1-12.13-.09L285.76,56.61a4.64,4.64,0,0,1,0-8l31.31-18.16a9,9,0,0,1,9.06,0L378,60.56a4.22,4.22,0,0,1,2.12,3.51A4.27,4.27,0,0,1,378,68Z"/><path class="cls-8" d="M330.34,47.33l-17.09,9.92c-1.76,1-1.08,2.76,1.26,3.25l26.86,5.67c2.71.57,5.32-.94,4.34-2.52l-9.77-15.58C335.09,46.71,332.1,46.32,330.34,47.33Z"/><path class="cls-14" d="M32.14,183.59l-2,1.14c-.26.15-.48,0-.48-.36a1.15,1.15,0,0,1,.48-.91l2-1.14c.26-.15.47,0,.47.36A1.14,1.14,0,0,1,32.14,183.59Z"/><path class="cls-76" d="M40.11,189.09a2.88,2.88,0,0,1-1.6-.48L31,183.71l.24-.37,7.47,4.9a2.49,2.49,0,0,0,2.63,0l74.9-45.2v4.42h-.44v-3.63L41.61,188.67A2.88,2.88,0,0,1,40.11,189.09Z"/><path class="cls-14" d="M120.7,89.51a2.14,2.14,0,0,1-2,0c-.55-.32-.55-.83,0-1.14a2.14,2.14,0,0,1,2,0C121.24,88.69,121.24,89.2,120.7,89.51Z"/><path class="cls-77" d="M120,89h-.44V76A2.76,2.76,0,0,0,118,73.59L95.29,61.44a.93.93,0,0,1,0-1.65L100.46,57l.2.39L95.5,60.18a.49.49,0,0,0,0,.87L118.25,73.2A3.21,3.21,0,0,1,120,76Z"/><path class="cls-78" d="M297.91,269.27a3.39,3.39,0,0,1-1.71-.47l-17.55-10.2a1.11,1.11,0,0,1-.56-1,1.09,1.09,0,0,1,.55-1l8.23-4.88.23.39L278.86,257a.68.68,0,0,0-.33.59.67.67,0,0,0,.34.58l17.55,10.2a2.94,2.94,0,0,0,3.08-.06l51.1-32.52a1.77,1.77,0,0,0,0-3L289.28,196.4a.8.8,0,0,0-.79,0,.77.77,0,0,0-.39.68v3.26h-.45v-3.26a1.21,1.21,0,0,1,.62-1.07,1.22,1.22,0,0,1,1.24,0l61.27,36.43a2.17,2.17,0,0,1,1.08,1.86,2.19,2.19,0,0,1-1,1.9l-51.1,32.52A3.37,3.37,0,0,1,297.91,269.27Z"/></svg>