<svg xmlns="http://www.w3.org/2000/svg" xmlns:xlink="http://www.w3.org/1999/xlink" viewBox="0 0 768.38 706.22"><defs><style>.cls-1{isolation:isolate;}.cls-10,.cls-12,.cls-2{fill:#a8c4e5;}.cls-2{opacity:0.4;}.cls-12,.cls-2{mix-blend-mode:multiply;}.cls-3{fill:#2c4482;}.cls-4{fill:#21275e;}.cls-5{fill:#ffc2b0;}.cls-6{fill:#d0e7f4;}.cls-20,.cls-26,.cls-7{fill:#fff;}.cls-8{fill:#ff5c97;}.cls-9{fill:#ea8a6c;}.cls-11{fill:#e1eaf4;}.cls-12{opacity:0.77;}.cls-13{fill:url(#linear-gradient);}.cls-14{fill:url(#linear-gradient-2);}.cls-15{fill:#b6d4ed;}.cls-16{fill:#dbefff;}.cls-17{fill:#97cbff;}.cls-18{fill:#3755a3;}.cls-19{fill:#d6ebff;}.cls-20{opacity:0.33;}.cls-21{fill:#4c73db;}.cls-22{fill:#4264bf;}.cls-23{fill:#36475c;}.cls-24{fill:#add5f7;}.cls-25{fill:#dbedff;}.cls-26{opacity:0.46;}.cls-27{fill:#513554;}.cls-28{fill:#fcfeff;}.cls-29{fill:#1d3570;}.cls-30{fill:#edb2a1;}.cls-31{fill:#70a9e0;}.cls-32{fill:#bbd6f2;}.cls-33{fill:#45446c;}.cls-34{fill:#8787cc;}.cls-35{fill:#52a5ff;}.cls-36{fill:#3c5db3;}.cls-37{fill:#4a70d6;opacity:0.27;}.cls-38{fill:#c9457b;}.cls-39{fill:#ff579c;}.cls-40{fill:none;stroke:#fff;stroke-linecap:round;stroke-linejoin:round;stroke-width:13.32px;}</style><linearGradient id="linear-gradient" x1="195.04" y1="558.48" x2="376.47" y2="558.48" gradientUnits="userSpaceOnUse"><stop offset="0" stop-color="#b0d6f7"/><stop offset="0.88" stop-color="#568bc7"/></linearGradient><linearGradient id="linear-gradient-2" x1="148.81" y1="646.34" x2="266.47" y2="646.34" xlink:href="#linear-gradient"/></defs><g class="cls-1"><g id="image"><ellipse class="cls-2" cx="191.17" cy="488.33" rx="24.42" ry="41.16" transform="translate(-311.86 636.55) rotate(-85.04)"/><path class="cls-3" d="M154,192a5.22,5.22,0,0,0-3-7.06c-3.54-1.26-8-1.36-9.88,4.51-2.2,6.68-7.33,19.41-10.8,27.87a2.88,2.88,0,0,0,4.7,3.13,15,15,0,0,0,4.22-7.79s-1.94,5.44-4,10a2.88,2.88,0,0,0,3.66,3.88c4.14-1.64,8.73-4.93,8.82-11.5C147.8,207,151.52,197.45,154,192Z"/><path class="cls-4" d="M158.82,193.13c-1.8,2.78-4.67,4.11-6.39,3s-1.67-4.29.14-7.06,4.67-4.11,6.4-3S160.63,190.36,158.82,193.13Z"/><path class="cls-5" d="M192.84,288.85a10.35,10.35,0,0,1-3.32,1.25c-2.76.39-5.73-1.28-8.48-2.89a2.3,2.3,0,0,1-.7-.55,2,2,0,0,1-.16-1.77c1-3.37,2.6-3.28,4.92-5.23,1.05-.87,2-1.91,3-2.8a31.64,31.64,0,0,1,5.33-3.47h0c2.24-1.25,10.41-5.53,12.08.6.72,2.65.49,4.39-.82,6.11a16.58,16.58,0,0,1-4.49,4.5A68.32,68.32,0,0,1,192.84,288.85Z"/><path class="cls-5" d="M181.22,282.93c.89-2.24,1.12-3.56,2.37-5.49a8.63,8.63,0,0,1,4-3.33c3.23-1.29,8.61-3.12,10.39-1.88,2.31,1.6-.05,4.28-1.48,5.93-2.86,3.28-7.69,5.58-11.59,7a1.47,1.47,0,0,1-1.59-.26c-.17.34,1.28-.6,1.13-.23C183.62,286.94,180.35,285.14,181.22,282.93Z"/><polygon class="cls-6" points="182.03 281.82 178.23 285.81 185.61 294.47 189.97 290.04 182.03 281.82"/><path class="cls-3" d="M208.49,475.58l-17.25-13.15-10.06-1.71c-3.32,13.08-1.81,11.5,2,14.85l15,9.35c7.9,3.78,10.41,4.25,15,2.24h0C216,484.2,213.35,480.35,208.49,475.58Z"/><path class="cls-3" d="M189.18,488.08l-17.25-13.14-10.05-1.72c-3.33,13.09-1.82,11.51,2,14.86l15,9.34c7.91,3.78,10.41,4.26,15,2.24h0C196.68,496.71,194.05,492.86,189.18,488.08Z"/><path class="cls-7" d="M159.62,245.58c6-5.94,16.62-8.23,24.76-8.13,2.68,0,2.68-4.13,0-4.17-9.25-.11-20.93,2.64-27.7,9.36-1.91,1.88,1,4.83,2.94,2.94Z"/><path class="cls-8" d="M192.74,242.83A438,438,0,0,0,202.22,309c2.39,10.44,18.46,6.09,16.07-4.36a409.42,409.42,0,0,1-8.9-61.75c-.78-10.61-17.44-10.77-16.65-.06Z"/><path class="cls-5" d="M189.2,326.88c.64,45.4-1.74,89.87-9.32,134.61-1.78,10.48,14.26,15,16.05,4.42,7.84-46.23,10.58-92.11,9.92-139-.15-10.71-16.8-10.74-16.65,0Z"/><path class="cls-5" d="M167.43,339.83c-2.6,45.27-6.62,90.58-6.7,136,0,10.71,16.63,10.73,16.65,0,.08-45.38,4.1-90.69,6.7-136,.61-10.71-16-10.67-16.65,0Z"/><path class="cls-8" d="M151.21,345c1.68,23.39,16.65,25.75,31.75,17s23.5-28.56,23.5-46c0,0-8.4-25.87-23.5-17.15S149.25,317.81,151.21,345Z"/><path class="cls-8" d="M202.68,248.32s10,15.71,8.86,25.19c-.73,6-5.08,12.82-5.71,14.75-5.21,15.81-2.33,20.6-2.89,25,0,0-3.47,15-40.58.82l-15.59-45.79Z"/><path class="cls-8" d="M149.52,278.3c-1.37-.84-1.71-3.07-1.71-3.07-.94-8.17-5.43-11.88,3.45-25.85,1.43-2.25,20.86-12.32,35.46-14.95a15.56,15.56,0,0,1,16.93,9.26,81.81,81.81,0,0,1,3.29,11.49c.69,15-5.95-4.69-7,3.59,0-.2.09-.4.12-.6,0,0-1.81,14-3.19,24.81-.85,6.75-1.45,11.64-1.5,12.32a.34.34,0,0,0,0,.09l-25.32,20-13.33-24.06h0Z"/><path class="cls-5" d="M185.81,234.21s12.66,13.08,1.68,22.34-29.68-11.44-29.68-11.44C167.63,239,177.07,234.79,185.81,234.21Z"/><path class="cls-8" d="M206.46,316l9,61.66a3.58,3.58,0,0,1-.76,2.39c-3.45,4.58-20.87,16.56-59,9.83-4.39-.78-5.11-1-5.09-3.87l2.21-49.09,22.41-.23Z"/><path class="cls-5" d="M180.08,241.76l6-23.32-14.6,4.63-4.92,19C165.56,245.21,175.71,253.66,180.08,241.76Z"/><path class="cls-7" d="M186.3,236a55.86,55.86,0,0,0,1.58,8.09c1,4.58,2.61,8-2.5,10.37-9.26,4.38-19.21-5-25.42-10.86-1.94-1.84-4.89,1.1-2.94,2.95,7.62,7.2,18.73,16.94,30,11.78,4.15-1.9,6.59-4.58,6-9.13s-2.31-8.78-2.58-13.2c-.16-2.66-4.33-2.68-4.16,0Z"/><rect class="cls-5" x="165.48" y="186.85" width="29.98" height="48.54" rx="12.72" transform="translate(414.75 360.32) rotate(163.01)"/><path class="cls-9" d="M182.61,235.39a20.12,20.12,0,0,1-9-1s4.11,4.39,8.65,4.85Z"/><path class="cls-3" d="M176.32,194.52s-3.79,18.48-9,24.07l1.72,3.35a12.52,12.52,0,0,1,.28,10.82l-.64,1.43s-34.4-19-12.61-42.95c14.74-16.18,38.49-7.8,38.48,9.47Z"/><path class="cls-5" d="M167.25,227.85c2.47.94,4.49-.37,4.5-2.92a7.32,7.32,0,0,0-4.46-6.34c-2.48-.94-4.5.37-4.51,2.92A7.31,7.31,0,0,0,167.25,227.85Z"/><path class="cls-5" d="M227.43,322.82l-5.6,3.57c-2.73,1.75-6,1.61-7.18-.29l-.85-1.33c-1.22-1.91,0-4.9,2.76-6.64l5.59-3.57c2.74-1.74,6-1.61,7.19.29l.85,1.34C231.41,318.09,230.16,321.08,227.43,322.82Z"/><path class="cls-10" d="M180.48,316.91v-1.36l1.75.67.38-.86L226.47,290a2.3,2.3,0,0,1,2.07.09L247.42,301v-.31l3.49,1.41v1.44h0a.78.78,0,0,1-.33.38l-45.64,26.34a2.3,2.3,0,0,1-2.07-.08L181,317.58a.84.84,0,0,1-.51-.67Z"/><path class="cls-11" d="M205,328.85l45.63-26.34c.53-.31.46-.85-.15-1.2l-21.86-12.62a2.3,2.3,0,0,0-2.07-.09L180.86,315c-.52.3-.46.84.15,1.19l21.87,12.63A2.3,2.3,0,0,0,205,328.85Z"/><path class="cls-10" d="M201.83,311.88l11-6.37c.13-.08.12-.21,0-.29l-5.29-3.06a.59.59,0,0,0-.5,0L196,308.52c-.13.07-.11.2,0,.29l5.29,3.05A.52.52,0,0,0,201.83,311.88Z"/><path class="cls-7" d="M206.11,299.2a5,5,0,0,1,2.1-3.18l45.31-25.74a1.13,1.13,0,0,1,1-.16h0a.58.58,0,0,1,.23.18l1.5,1.58-1.36-.12-4.3,27.84a4.94,4.94,0,0,1-2.11,3.17l-42.84,24.35-1.38,1.56-.17.38c-.87.19-2.94-1.29-2.94-1.29Z"/><path class="cls-3" d="M204.79,330.2l45.31-25.74a4.93,4.93,0,0,0,2.1-3.18l4.36-28.15c.18-1.2-.46-1.73-1.43-1.17l-45.31,25.75a4.93,4.93,0,0,0-2.1,3.17L203.37,329C203.18,330.23,203.82,330.76,204.79,330.2Z"/><path class="cls-7" d="M228.87,303c-.23,1.5,1.13,1.83,3,.75s3.64-3.17,3.87-4.67-1.13-1.83-3-.75S229.1,301.46,228.87,303Z"/><path class="cls-5" d="M145.61,255.69c-4.65,10.74-10.74,21.8-12,33.63-.91,8.63-1.7,22.7,4.59,29.54,6,6.51,16,5.38,23.76,3.75,4.82-1,9.5-2.53,14.2-4,2.06-.64,4.12-1.25,6.2-1.84.86-.25,3.09-.34,2.08-.59,7.79,2,11.12-10.06,3.32-12-5.76-1.47-12.35,1.66-17.75,3.32s-15.57,6.15-21.08,3.67c-4.59-2.06-3.45-15.74-3-20.47,1-10,6.49-19.61,10.41-28.67,3.16-7.3-7.59-13.67-10.78-6.31Z"/><path class="cls-8" d="M143,254.32c-9.13,18.05-10.12,37.53-10.13,56.86,0,8.72,16.65,9.1,16.65.36,0-18.24.83-36.23,9.45-53.27,4.07-8-11.94-11.91-16-3.95Z"/><rect class="cls-5" x="186.25" y="299.56" width="13.08" height="21.21" rx="5.98" transform="translate(542.37 204.51) rotate(105.05)"/><path class="cls-12" d="M372.86,598.5h0c-6.18-3.57-1.85-9.64,6.87-9.62h0c9.86,0,17.83-4.59,17.8-10.28l0-2.93c0-5.7-8.05-10.33-17.91-10.35h0c-8.72,0-13.11-6.1-7-9.65h0c6.95-4,6.92-10.54-.08-14.58L369,539c-7-4-18.3-4.06-25.26,0h0c-6.14,3.54-16.69,1-16.71-4h0c0-5.69-8.05-10.32-17.92-10.34H304c-9.87,0-17.84,4.59-17.81,10.28h0c0,5-10.49,7.53-16.67,4h0c-7-4-18.3-4.06-25.25,0l-3.58,2.06c-7,4-6.92,10.55.08,14.58,6.18,3.57,1.85,9.65-6.87,9.63h0c-9.86,0-17.83,4.59-17.8,10.28l0,2.93c0,5.69,8,10.33,17.91,10.34h0c8.71,0,13.11,6.11,7,9.65h0c-7,4-6.92,10.55.08,14.59l3.6,2.08c7,4,18.3,4.05,25.25,0,6.14-3.54,16.69-1,16.72,4,0,5.7,8.05,10.33,17.91,10.35h5.08c9.86,0,17.83-4.59,17.8-10.28h0c0-5,10.5-7.53,16.68-4h0c7,4,18.3,4.06,25.25,0l3.58-2.07C379.89,609.07,379.86,602.54,372.86,598.5ZM275.57,595c-17.36-10-17.45-26.23-.2-36.19s45.32-9.91,62.68.11,17.45,26.23.2,36.19S292.93,605,275.57,595Z"/><path class="cls-12" d="M267.08,675.75h0c-4.12-2.38-1.23-6.43,4.58-6.42h0c6.58,0,11.89-3.06,11.87-6.85v-2c0-3.8-5.37-6.89-11.95-6.9h0c-5.81,0-8.74-4.07-4.64-6.43h0c4.63-2.68,4.61-7-.06-9.73l-2.4-1.39c-4.66-2.69-12.21-2.7-16.84,0h0c-4.1,2.37-11.13.68-11.15-2.68h0c0-3.8-5.37-6.89-11.95-6.9h-3.39c-6.57,0-11.89,3-11.87,6.85h0c0,3.36-7,5-11.12,2.64h0c-4.66-2.69-12.21-2.7-16.84,0l-2.39,1.38c-4.64,2.68-4.61,7,.05,9.73,4.13,2.38,1.24,6.43-4.57,6.42h0c-6.58,0-11.9,3-11.88,6.85v2c0,3.79,5.37,6.88,11.95,6.89h0c5.81,0,8.74,4.08,4.65,6.44h0c-4.64,2.68-4.61,7,.05,9.73l2.4,1.38c4.67,2.7,12.21,2.71,16.85,0,4.09-2.36,11.13-.67,11.15,2.69,0,3.79,5.37,6.88,11.94,6.89h3.39c6.58,0,11.89-3.06,11.87-6.85h0c0-3.36,7-5,11.12-2.65h0c4.67,2.7,12.21,2.71,16.85,0l2.38-1.37C271.77,682.8,271.75,678.44,267.08,675.75Zm-64.89-2.33c-11.58-6.69-11.64-17.49-.13-24.14s30.22-6.61,41.8.08,11.64,17.49.13,24.13S213.77,680.1,202.19,673.42Z"/><path class="cls-3" d="M351.81,593.62h0c-6.18-3.57-1.85-9.64,6.86-9.63h0c9.86,0,17.83-4.58,17.8-10.27v-2.94c0-5.69-8-10.32-17.92-10.34h0c-8.71,0-13.11-6.1-7-9.65h0c6.95-4,6.91-10.54-.08-14.58l-3.6-2.08c-7-4-18.31-4.06-25.26,0h0c-6.14,3.54-16.69,1-16.72-4h0c0-5.69-8.05-10.32-17.91-10.34h-5.08c-9.86,0-17.83,4.58-17.8,10.28h0c0,5-10.49,7.53-16.67,4h0c-7-4-18.31-4.06-25.26-.05L219.62,536c-7,4-6.91,10.54.08,14.58,6.18,3.57,1.85,9.64-6.86,9.63h0c-9.86,0-17.84,4.58-17.8,10.28v2.93c0,5.69,8,10.32,17.92,10.34h0c8.71,0,13.11,6.11,7,9.65h0c-7,4-6.91,10.54.08,14.58l3.6,2.08c7,4,18.31,4.06,25.26.05,6.14-3.55,16.69-1,16.72,4,0,5.7,8.05,10.33,17.91,10.34h5.08c9.86,0,17.83-4.58,17.8-10.28h0c0-5,10.49-7.53,16.67-4h0c7,4,18.31,4.06,25.26,0l3.58-2.07C358.84,604.19,358.8,597.66,351.81,593.62Zm-97.3-3.5c-17.36-10-17.45-26.22-.19-36.18s45.31-9.91,62.68.11,17.45,26.23.19,36.19S271.88,600.15,254.51,590.12Z"/><path class="cls-13" d="M351.81,580h0c-6.18-3.57-1.85-9.64,6.86-9.62h0c9.86,0,17.83-4.59,17.8-10.28v-2.93c0-5.7-8-10.33-17.92-10.35h0c-8.71,0-13.11-6.1-7-9.65h0c6.95-4,6.91-10.54-.08-14.58l-3.6-2.08c-7-4-18.31-4.06-25.26,0h0c-6.14,3.54-16.69,1-16.72-4h0c0-5.69-8.05-10.32-17.91-10.34h-5.08c-9.86,0-17.83,4.59-17.8,10.28h0c0,5-10.49,7.53-16.67,4h0c-7-4-18.31-4.06-25.26,0l-3.58,2.06c-7,4-6.91,10.55.08,14.58,6.18,3.57,1.85,9.65-6.86,9.63h0c-9.86,0-17.84,4.59-17.8,10.28v2.93c0,5.69,8,10.33,17.92,10.34h0c8.71,0,13.11,6.11,7,9.65h0c-7,4-6.91,10.55.08,14.59l3.6,2.08c7,4,18.31,4,25.26,0,6.14-3.54,16.69-1,16.72,4,0,5.7,8.05,10.33,17.91,10.35h5.08c9.86,0,17.83-4.59,17.8-10.28h0c0-5,10.49-7.53,16.67-4h0c7,4,18.31,4.06,25.26,0l3.58-2.07C358.84,590.58,358.8,584.05,351.81,580Zm-97.3-3.49c-17.36-10-17.45-26.23-.19-36.19s45.31-9.91,62.68.11,17.45,26.23.19,36.19S271.88,586.54,254.51,576.52Z"/><path class="cls-3" d="M250.48,669.13h0c-4-2.31-1.2-6.25,4.45-6.24h0c6.39,0,11.56-3,11.54-6.67v-1.9c0-3.69-5.22-6.69-11.62-6.71h0c-5.65,0-8.5-4-4.51-6.26h0c4.5-2.6,4.48-6.83-.06-9.45l-2.33-1.35c-4.54-2.62-11.87-2.63-16.38,0h0c-4,2.3-10.82.65-10.84-2.61h0c0-3.69-5.22-6.69-11.62-6.71h-3.29c-6.4,0-11.57,3-11.55,6.66h0c0,3.27-6.8,4.89-10.81,2.57h0c-4.54-2.62-11.87-2.63-16.38,0l-2.32,1.34c-4.51,2.61-4.48,6.84.05,9.46,4,2.31,1.2,6.25-4.45,6.24h0c-6.39,0-11.56,3-11.54,6.67V656c0,3.69,5.22,6.7,11.62,6.71h0c5.65,0,8.5,4,4.51,6.26h0c-4.5,2.6-4.48,6.83.06,9.45l2.33,1.35c4.54,2.62,11.87,2.63,16.38,0,4-2.3,10.82-.65,10.84,2.61,0,3.69,5.22,6.69,11.62,6.71h3.29c6.4,0,11.57-3,11.55-6.66h0c0-3.27,6.8-4.89,10.81-2.57h0c4.54,2.62,11.87,2.63,16.38,0l2.32-1.34C255,676,255,671.75,250.48,669.13Zm-63.1-2.27c-11.26-6.5-11.32-17-.13-23.47s29.39-6.42,40.65.08,11.32,17,.13,23.47S198.64,673.36,187.38,666.86Z"/><path class="cls-14" d="M250.48,660.31h0c-4-2.32-1.2-6.26,4.45-6.25h0c6.39,0,11.56-3,11.54-6.66v-1.9c0-3.7-5.22-6.7-11.62-6.71h0c-5.65,0-8.5-4-4.51-6.26h0c4.5-2.6,4.48-6.84-.06-9.46l-2.33-1.34c-4.54-2.62-11.87-2.64-16.38,0h0c-4,2.3-10.82.65-10.84-2.61h0c0-3.7-5.22-6.7-11.62-6.71h-3.29c-6.4,0-11.57,3-11.55,6.67h0c0,3.26-6.8,4.88-10.81,2.57h0c-4.54-2.62-11.87-2.63-16.38,0l-2.32,1.34c-4.51,2.6-4.48,6.84.05,9.46,4,2.31,1.2,6.25-4.45,6.24h0c-6.39,0-11.56,3-11.54,6.66v1.9c0,3.7,5.22,6.7,11.62,6.71h0c5.65,0,8.5,4,4.51,6.26h0c-4.5,2.6-4.48,6.84.06,9.46l2.33,1.35c4.54,2.62,11.87,2.63,16.38,0,4-2.3,10.82-.66,10.84,2.6,0,3.7,5.22,6.7,11.62,6.71h3.29c6.4,0,11.57-3,11.55-6.67h0c0-3.26,6.8-4.88,10.81-2.57h0c4.54,2.62,11.87,2.63,16.38,0l2.32-1.34C255,667.16,255,662.93,250.48,660.31ZM187.38,658c-11.26-6.5-11.32-17-.13-23.47s29.39-6.43,40.65.07,11.32,17,.13,23.47S198.64,664.54,187.38,658Z"/><path class="cls-15" d="M601.93,631.39,393.18,503.18c-12.59-7.27-22.79-26.76-22.79-43.54V20.4c0-16.79,10.2-24.5,22.79-17.23L603.3,124.48c12.58,7.27,22.79,26.76,22.79,43.54V605.19c0,11-3.44,13.07-10.39,17.08Z"/><path class="cls-16" d="M469.5,209.17S370.29,476,370.29,459.2L365.16,5.76,379,1.1c3.87-1.83,8.76-1.43,14.07,1.63L603.2,124.05c6.15,3.54,11.72,10,15.82,17.65Z"/><path class="cls-3" d="M584,633,374.4,511.73c-12.59-7.27-22.28-26.77-22.28-43.55V28.94c0-16.78,9.94-24.5,22.53-17.23L584.13,133c12.59,7.27,22.16,26.77,22.16,43.55V615.81C606.29,632.59,596.59,640.3,584,633Z"/><path class="cls-3" d="M615.29,208.79v25.08c0,1.75,1,2.56,2.35,1.8l-.31-.21c1.31-.76,1.69-2.8,1.69-4.55V205.82c0-1.74-.4-2.55-1.71-1.8v.22C616,205,615.29,207,615.29,208.79Z"/><path class="cls-3" d="M615.29,252.7v25.09c0,1.75,1,2.56,2.35,1.8l-.31-.21c1.31-.76,1.69-2.8,1.69-4.55V249.74c0-1.75-.4-2.56-1.71-1.8v.21C616,248.91,615.29,251,615.29,252.7Z"/><path class="cls-17" d="M578.19,558,373.82,440a6.86,6.86,0,0,1-3.43-5.94V63.1a6.87,6.87,0,0,1,10.3-6l204.37,118a6.87,6.87,0,0,1,3.43,6V552A6.86,6.86,0,0,1,578.19,558Z"/><path class="cls-18" d="M516,119.56,451.18,82.14c-2.28-1.32-4.14-4.87-4.14-7.9h0c0-3,1.86-4.44,4.14-3.13L516,108.53c2.27,1.31,4.13,4.87,4.13,7.9h0C520.12,119.46,518.26,120.87,516,119.56Z"/><polygon class="cls-19" points="645.8 251.49 471.78 150.97 471.78 253.4 645.8 353.87 645.8 251.49"/><polygon class="cls-3" points="543.1 277.88 484.81 244.23 484.81 177.35 543.1 211 543.1 277.88"/><path class="cls-7" d="M531.19,260.66c0-4.45-1.92-12-3.73-14.64h0a18.37,18.37,0,0,0-2.75-3.05c-.93-.88-2.14-2.13-3.31-3.33l-1.17-1.21h0l-2.36-2.54c-.36-.45-.71-.91-1.06-1.36-.06-.08-.19-.22-.25-.32a4.38,4.38,0,0,1,0-.51l-.15-3.25a3.92,3.92,0,0,0,1.72-3.19c1.59,1,1.93-1.1,2.07-2.56.1-1,.22-3.66-1-4.66,0-.16.05-.32.08-.46a12.47,12.47,0,0,0,.34-2.75,9,9,0,0,0-.62-3.23,3.16,3.16,0,0,0-.4-.75,3.74,3.74,0,0,0-.2-1.18,17.14,17.14,0,0,0-4.77-7.64,11,11,0,0,0-5.84-2.76c-1.39-.2-3.21,0-3.24,2.44a2.69,2.69,0,0,0,.17.93c-.26-.13-.46,0-.59.24a4.73,4.73,0,0,0-.5,2.59,20.86,20.86,0,0,0,.46,3.21c0,.17.07.36.1.55-1.51-.91-1.2,2.24-1,3.53.22,1.61.68,4,2.12,5a14.34,14.34,0,0,0,.48,2.17,12.72,12.72,0,0,0,1.31,2.89s0,0,0,0l.14,3.34c0,.1,0,.28,0,.39,0-.08-.25.11-.32.14l-.65.32h0l-.62-.1v0l-.15,0a10,10,0,0,0-1.24-.18h0c-.53,0-1.07-.06-1.6-.07a15.52,15.52,0,0,1-2.83-.25,5.28,5.28,0,0,0-2.69-.13c-1.67.57-3.36,3.14-3.29,11.92L531.19,263Zm-11.31-36c0,.15,0,.27,0,.37C519.85,224.88,519.86,224.75,519.88,224.62Z"/><polygon class="cls-17" points="577.1 232.65 550.83 217.48 550.83 226.36 577.1 241.52 577.1 232.65"/><polygon class="cls-17" points="599.58 274.07 549.6 245.22 549.6 236.35 599.58 265.2 599.58 274.07"/><polygon class="cls-17" points="634.54 294.05 584.56 265.2 584.56 256.32 634.54 285.18 634.54 294.05"/><polygon class="cls-17" points="634.54 313.8 584.56 284.94 584.56 276.07 634.54 304.92 634.54 313.8"/><polygon class="cls-17" points="602.67 256.32 552.7 227.47 552.7 218.6 602.67 247.45 602.67 256.32"/><polygon class="cls-17" points="598.35 292.93 548.38 264.08 548.38 255.21 598.35 284.06 598.35 292.93"/><polygon class="cls-20" points="520.11 282.38 461.83 248.73 461.83 181.85 520.11 215.5 520.11 282.38"/><polygon class="cls-7" points="458.22 277.12 458.22 501.34 569.32 565.53 569.32 341.31 458.22 277.12"/><polygon class="cls-17" points="546.29 385.09 496.32 356.24 496.32 347.36 546.29 376.22 546.29 385.09"/><polygon class="cls-17" points="546.29 425.31 496.32 396.46 496.32 387.59 546.29 416.44 546.29 425.31"/><polygon class="cls-17" points="546.29 465.54 496.32 436.69 496.32 427.82 546.29 456.67 546.29 465.54"/><path class="cls-21" d="M483.34,353.61l-10.08-5.81a6.53,6.53,0,0,1-2.72-5.2V332.05c0-2,1.22-2.92,2.72-2.06l10.08,5.82a6.52,6.52,0,0,1,2.72,5.2v10.55C486.06,353.56,484.84,354.48,483.34,353.61Z"/><path class="cls-21" d="M483.34,396.69l-10.08-5.81a6.53,6.53,0,0,1-2.72-5.2V375.13c0-2,1.22-2.92,2.72-2.06l10.08,5.82a6.52,6.52,0,0,1,2.72,5.2v10.55C486.06,396.64,484.84,397.56,483.34,396.69Z"/><path class="cls-21" d="M483.34,439.77,473.26,434a6.5,6.5,0,0,1-2.72-5.19V418.21c0-2,1.22-2.92,2.72-2.06L483.34,422a6.51,6.51,0,0,1,2.72,5.19v10.56C486.06,439.72,484.84,440.64,483.34,439.77Z"/><path class="cls-8" d="M512.67,522.34l-58.46-33.75c-8-4.6-14.5-17.07-14.5-27.7v-3.11c0-10.63,6.52-15.56,14.5-11l58.46,33.76c8,4.6,14.49,17.06,14.49,27.69v3.11C527.16,522,520.64,526.94,512.67,522.34Z"/><path class="cls-7" d="M507.25,500l-50.73-29.29a4.53,4.53,0,0,1-1.89-3.6h0c0-1.38.85-2,1.89-1.42L507.25,495a4.55,4.55,0,0,1,1.88,3.6h0C509.13,500,508.28,500.64,507.25,500Z"/><ellipse class="cls-2" cx="703.11" cy="664.03" rx="31.5" ry="63.42" transform="translate(26.7 1355.25) rotate(-88.98)"/><path class="cls-3" d="M739.32,653.15l6.83-21.9,7.63-7.64c10.88,9.25,8.61,8.81,7.36,14l-7.22,17.25C749.41,663,747.54,665,742.34,666h0C738.12,665.19,738,660.25,739.32,653.15Z"/><path class="cls-3" d="M750.4,636.73a8.26,8.26,0,0,1-4.52-1.34c-1.11-.73-27.42-18.15-37.4-46.86-4.9-14.08-11.49-58.81-11.77-60.71a8.29,8.29,0,1,1,16.4-2.4c1.83,12.49,7.38,47.2,11,57.67,8.09,23.26,30.6,38.27,30.82,38.42a8.29,8.29,0,0,1-4.55,15.22Z"/><path class="cls-3" d="M645.4,656.27l20.67-9.94,10.78.36c.66,14.27-.57,12.31-5.24,15l-17.54,6.48c-9,2.23-11.69,2.19-16-.88h0C635.78,663.6,639.33,660.18,645.4,656.27Z"/><path class="cls-3" d="M668.79,653.11a8.29,8.29,0,0,1-8.15-6.87c-16.91-97.37,2.06-138.34,2.88-140a8.29,8.29,0,0,1,15,7.14c-.29.63-17.3,39.13-1.51,130.06a8.3,8.3,0,0,1-6.75,9.59A8.72,8.72,0,0,1,668.79,653.11Z"/><path class="cls-5" d="M640.07,423.75c-2.27,7.71-9.57,22.12-19.09,22.8-14.27,1-13.82-34.06-14-41.59-.2-7.89-12.49-7.92-12.28,0,.42,16.15,1.6,54.85,26.18,53.9,15.68-.6,27.1-18.46,31.06-31.85,2.24-7.59-9.61-10.84-11.85-3.26Z"/><path class="cls-22" d="M652.6,393.85c-7.86,6.31-13.32,17.22-18.8,28.43-2,2.85-.49,7.1,2.81,9.5l11,9.06c2.55,1.12,6.88-3.67,8.21-6.23l14.62-28.17a10,10,0,0,0-3.14-13h0C662.93,390.59,658.49,389.54,652.6,393.85Z"/><path class="cls-23" d="M700.26,406.42l-29.63-6.05,3.66-14.59c8.82-.53,15.16,2,22.8,6.77Z"/><path class="cls-3" d="M672.34,530.09c4.54,3.14,24.65,13.87,30.16,13.74,6.66-.17,9.93-.77,14.7-5.42,4.53-4.41,5.35-11.31,5.55-17.63a11,11,0,0,0-.7-5.14,11.13,11.13,0,0,0-4-3.94c-12.13-8.41-36.18-29.49-52.32-21.76C647.1,498.87,664.77,524.84,672.34,530.09Z"/><path class="cls-22" d="M656.5,395.85c-3.3,4.64-2.77,7.4-2.35,13.52a13.71,13.71,0,0,0,10.53,12.39l59.65,14.09s11.32-18.93-.59-25.28c-6.42-3.41-25.26-12.79-33.08-17.12C679.16,387.09,664.11,385.15,656.5,395.85Z"/><path class="cls-22" d="M657.29,500.83c1-2.65,2-59.78-3.18-99.88l67.68,28.82c.93,30.35-1.91,54.44,3.25,91.25Z"/><path class="cls-22" d="M703.17,528.53c-16.64-5.3-33.63-12.41-43.27-23.29-4.62-2.41-3.14-5.81,1.94-9h0c5.08-3.22,13-3.88,17.62-1.46l42.18,22.07c4.62,2.42,4.24,7-.84,10.25h0C715.72,530.29,707.79,531,703.17,528.53Z"/><path class="cls-7" d="M684.83,402.38s-7.22.27-9.1-12.24l-4.83-.47c-.65.55-2,.25-2.52,4.48a19.22,19.22,0,0,0,.71,7.5l2.08,7.09A2.44,2.44,0,0,0,675,410Z"/><path class="cls-5" d="M680.81,399.81l-4-25.48,15.09,6.45,3.26,20.81C696,405,684.24,413,680.81,399.81Z"/><rect class="cls-5" x="659.1" y="342.24" width="33.47" height="54.19" rx="14.2" transform="translate(-32.9 67.91) rotate(-5.62)"/><path class="cls-3" d="M678.83,362.24A24.08,24.08,0,0,1,660.67,364c-6.52-2-7.09-10.87-2.4-15.85,2.54-2.68,5.23-4.54,10.83-7.25,15.89-7.68,33.7-1.13,35.52,17.46,0,0,3.16,25.42-11.46,30.15l-.51-1.55a4.49,4.49,0,0,1,.4-3.65c1.19-2.05,2.34-5.78-2.43-8.8a10.39,10.39,0,0,1-4.29-7.87C686.32,363.45,681.58,360.72,678.83,362.24Z"/><path class="cls-5" d="M695.79,381c-1.94,2.23-4.62,2-6-.51a8.19,8.19,0,0,1,1.08-8.59c2-2.22,4.62-2,6,.52A8.15,8.15,0,0,1,695.79,381Z"/><path class="cls-9" d="M680.07,396.14A65.78,65.78,0,0,0,688,393.4s-3.58,4.1-7.24,5.75Z"/><path class="cls-7" d="M681.09,402s8.34,2.49,16-9.4l5.63,6.43c.52,1,.58,1.12-.21,2.06l-10.32,12.17a2.8,2.8,0,0,1-4.44-.12Z"/><path class="cls-24" d="M643.67,380.58l-23.32,7.94,2.81,8.25,23.32-7.94c1.43-.49,2-2.73,1.19-5S645.1,380.09,643.67,380.58Z"/><path class="cls-24" d="M638.84,380.23l-33.19,11.3,4,11.73L642.83,392c2-.7,2.8-3.88,1.69-7.12S640.87,379.53,638.84,380.23Z"/><path class="cls-3" d="M618.25,384.52l0,0-40.73,12.64h0l-.16,0c-2.87,1-3.74,6-2,11.34s5.59,8.77,8.46,7.79l.16-.07h0l40-15h0c2.87-1,3.92-5.53,2.34-10.17S621.12,383.55,618.25,384.52Z"/><path class="cls-22" d="M592.05,391.11l0,0L572.31,396l8.94,23.91L599.16,412h0c3.57-1.22,4.87-6.88,2.91-12.65S595.62,389.89,592.05,391.11Z"/><path class="cls-7" d="M584.56,405.31c2.29,6.7.31,13.44-4.41,15.05s-10.4-2.53-12.69-9.23-.3-13.45,4.42-15.05S582.28,398.6,584.56,405.31Z"/><ellipse class="cls-3" cx="576.01" cy="408.22" rx="6.9" ry="9.79" transform="translate(-100.83 207.42) rotate(-18.8)"/><rect class="cls-5" x="591.49" y="384.79" width="14.8" height="14.01" rx="5.66" transform="translate(1217.12 752.31) rotate(177.05)"/><path class="cls-5" d="M719.11,426.74c5.71,12.12,14.32,22.64,20.4,34.59C751,483.86,754.86,509,756.09,534c.38,7.87,12.67,7.91,12.28,0-1.26-25.67-5.23-51.22-16.2-74.67-6.37-13.61-16.07-25.26-22.45-38.8-3.37-7.15-14-.92-10.61,6.2Z"/><path class="cls-22" d="M710.57,424.27l17.25,28c6.77,6.83,22.56-7.88,17.54-14l-18.89-25.45a9.81,9.81,0,0,0-13-1.84h0A9.82,9.82,0,0,0,710.57,424.27Z"/><path class="cls-22" d="M575.39,403.28a2.69,2.69,0,0,0-4.73-.87c-1.23,1.66-1.66,4.52,1.14,9.41C577,420.9,577.7,411.35,575.39,403.28Z"/><path class="cls-7" d="M576.26,402.72a1.63,1.63,0,1,1-2.37-.83A1.79,1.79,0,0,1,576.26,402.72Z"/><path class="cls-25" d="M96.35,430.23c1.16,4.88,2.67,15.7-5.51,19.62a4.61,4.61,0,0,1-3.86,0l-2.5-1.12a4.67,4.67,0,0,1-2.14-6.58,44.46,44.46,0,0,0,4.87-11.77,4.69,4.69,0,0,1,6.18-3.46l0,0A4.62,4.62,0,0,1,96.35,430.23Z"/><ellipse class="cls-2" cx="52.01" cy="628.35" rx="30.03" ry="52.01" transform="translate(-576.61 676.95) rotate(-89.69)"/><path class="cls-3" d="M84.36,631.51l-20.83-7-6.27,5c-3.29,4.28-4.7,6.76-3,11,1.39,3.56,7.58,5,11.08,5.36l16.15-.23c11.71.28,13.15-3.73,13.93-7.27h0C95.9,634.15,91.35,632.54,84.36,631.51Z"/><path class="cls-3" d="M37.72,602.55,16.18,607l-2.9,7.47c-.7,5.37-.66,8.22,2.9,11.05,3,2.37,9.08.54,12.27-1l13.84-8.32c10.26-5.65,9.48-9.84,8.38-13.3h0C49,599,44.28,599.93,37.72,602.55Z"/><path class="cls-26" d="M62.07,319.09l-.26,2.26s-.71,6.81-6.85,2.31-4.67-12.9-4.67-12.9S55.44,310.92,62.07,319.09Z"/><path class="cls-27" d="M54.89,323.85c8,5.82,8.88-2.12,8.88-2.12l.07,0L64,319c-8.44-9.77-14.66-10.29-14.66-10.29S46.88,318,54.89,323.85Zm-4.3-12.72s5,.47,11.43,8l-.23,1.95s-.65,5.9-6.61,1.58S50.59,311.13,50.59,311.13Z"/><polygon class="cls-27" points="66.79 323.72 61.98 320.6 62.14 317.63 66.95 320.76 66.79 323.72"/><path class="cls-27" d="M49.4,311.05l-.85-.55a2,2,0,0,1-.78-1.7h0c0-.64.44-.92.9-.61l.85.55a2.05,2.05,0,0,1,.78,1.7h0C50.27,311.08,49.87,311.36,49.4,311.05Z"/><path class="cls-27" d="M80.51,331.29l-.85-.56a2.09,2.09,0,0,1-.78-1.7h0c0-.64.44-.92.91-.61l.85.55a2.11,2.11,0,0,1,.78,1.71h0C81.38,331.31,81,331.59,80.51,331.29Z"/><path class="cls-3" d="M80.1,327.67s-6.89-6.37-15.9-6.51l.27,2.72.07,0a16.15,16.15,0,0,0,9.95,11.79C83.17,339.08,80.1,327.67,80.1,327.67Zm-6,6.62a12,12,0,0,1-7.4-8.76l-.33-2.09c6.87,0,12.39,5.06,12.39,5.06S80.58,336.8,74.12,334.29Z"/><path class="cls-3" d="M68.19,326.32h0c-.17-.29-.19-.63,0-.75L70,324.1c.15-.13.42,0,.6.3h0c.17.28.19.62,0,.75l-1.8,1.47C68.64,326.74,68.37,326.61,68.19,326.32Z"/><path class="cls-28" d="M51,314.77h0c-.17-.29-.19-.62,0-.75l1.8-1.47c.15-.13.42,0,.6.3h0c.18.29.19.62,0,.75l-1.8,1.47C51.49,315.19,51.22,315.06,51,314.77Z"/><path class="cls-5" d="M36.93,357l4.88-21.75,13.27,8.93-4,19.8C50.69,367.2,36,364.39,36.93,357Z"/><path class="cls-5" d="M49.44,302.73S37.66,291.6,34.2,313.85A39.24,39.24,0,0,0,51,352.09c7.35,5,17.75,1.58,19.33-6.07,3.57-11,5.17-21.48,2.83-31.08,1.92-9.22-5-6.87-15.94-9.13Z"/><path class="cls-29" d="M35.45,344.81s-14.36-7.92-9.72-29.11c5-22.93,26-17.75,38-17.11,5.32.28,9.19,2.56,11.41,6.87s.52,13-6.57,12.56c-2.82-.16-2.66,7.51-3.61,10-1.68,4.42-4.85,6.22-6.57,10.49-1.62,4-8.77,9.67-12.85,9.54C38.31,347.8,35.45,344.81,35.45,344.81Z"/><path class="cls-3" d="M80.06,331.94l-19.91-1.05a1.29,1.29,0,0,1-1.22-1.36h0a1.29,1.29,0,0,1,1.36-1.22l19.91,1.06a1.29,1.29,0,0,1,1.22,1.35h0A1.29,1.29,0,0,1,80.06,331.94Z"/><path class="cls-5" d="M62.66,334.55c-.23,3.71-2.57,6.58-5.23,6.41a3.54,3.54,0,0,1-.85-.16c-2.21-.7-3.75-3.55-3.54-6.86.23-3.71,2.58-6.58,5.23-6.41S62.9,330.84,62.66,334.55Z"/><path class="cls-30" d="M109.53,409.74h0a5.63,5.63,0,0,1-3.49-7.13l4.31-12.52a5.62,5.62,0,0,1,7.13-3.48h0a5.63,5.63,0,0,1,3.48,7.12l-4.31,12.53A5.62,5.62,0,0,1,109.53,409.74Z"/><path class="cls-30" d="M19,387.12c6,11.89,15.83,22.05,28.53,26.56,17.56,6.24,35.72-1.38,49.79-12,6.3-4.75.12-15.54-6.26-10.72-11.39,8.58-25.81,16.12-40.23,10.73-9.65-3.6-16.61-11.88-21.11-20.86C26.11,373.71,15.4,380,19,387.12Z"/><path class="cls-3" d="M47.63,495.9c8.25,24.24,9,50.29,8.24,75.67-.58,18.87-3.55,37.9-3.09,56.78.31,12.39,19.6,12.44,19.3,0-.48-19.44,2.6-39,3.13-58.48.72-26.4-.4-53.89-9-79.1-4-11.69-22.62-6.67-18.61,5.13Z"/><path class="cls-3" d="M8.82,474.16c4.35,15.83,6.31,32.15,7.89,48.45.92,9.53,2,18.58,1,28.07-2,19.17-5.58,38.69-5.46,58,.08,12.41,19.38,12.43,19.3,0-.13-19.62,3.53-39.45,5.55-58.92,1-9.8-.33-19.36-1.3-29.15C34.09,503.3,32,485.84,27.43,469c-3.29-12-21.91-6.88-18.61,5.13Z"/><path class="cls-3" d="M24.63,499.67h0c1.78,2-5.87-7.72-3.58-6.34,4.77,2.89,31.55,21.08,37.13,21.18,6.73.11,2.81-6.4,7.82-10.9,4.75-4.26,5.87-11.2,6.34-17.57a11.07,11.07,0,0,0-.49-5.22A11.22,11.22,0,0,0,68,476.68c-11.9-9-35.31-31.3-51.93-24.17C-3.14,460.75,16.11,490.11,24.63,499.67Z"/><path class="cls-17" d="M10.67,357.12c-3.52,4.54-3.11,7.35-2.94,13.55a13.85,13.85,0,0,0,10.12,12.94l59.64,16.73s3.43-22.95-8.34-29.85c-6.33-3.72-16.17-9.67-23.89-14.38C33.92,349.21,18.81,346.62,10.67,357.12Z"/><path class="cls-17" d="M7.52,464.92c-3.8-1.46-2.89-66.72.53-102.76L75.18,394.1c-.33,30.68-4.21,54.89-.53,92.28Z"/><path class="cls-17" d="M52.25,493.05C35.66,487,19.86,480.38,10.57,469c-4.55-2.64-4-7.28,1.29-10.32h0c5.26-3,13.3-3.37,17.86-.74L71.39,482c4.56,2.63,4,7.27-1.28,10.31h0C64.84,495.35,56.81,495.69,52.25,493.05Z"/><path class="cls-31" d="M75.18,394.1l-11.06-5.26c-.45,29.9-4.12,53.93-.51,90.64l-.18-.05c.07,2.07-1.4,4.28-4.36,6h0c-5.26,3-13.3,3.37-17.86.74a193.16,193.16,0,0,1-22.7-9.58c9.16,7,21.22,11.91,33.74,16.47,4.56,2.64,12.59,2.3,17.86-.74h0c3-1.7,4.43-3.91,4.35-6l.19.06C71,449,74.85,424.78,75.18,394.1Z"/><path class="cls-7" d="M61.59,365.73c-15.4-2.31-25.81,6.08-29.49-16.1h0a4.93,4.93,0,0,1,6.66,1.45c2.64,3.82,8.26,6.23,14.47,5.47a4.87,4.87,0,0,1,4.7,2.21Z"/><path class="cls-30" d="M61.13,386c.73,9.95.7,20.39,4.16,29.88,3.22,8.85,7.32,20.2,14.65,26.52,19.41,16.73,32.89-24.05,36.87-36.58,2.43-7.63-9.56-7.12-12,.48-2.67,8.42-5.66,19-12.12,25.48-3.09,3.08-4,2.67-6.8-1.26C76.35,416.86,74.71,402,73.54,386c-.58-7.92-13-8-12.41,0Z"/><path class="cls-17" d="M57.68,385.77c3.76,31.75,13.77,51.94,27.64,62.21,7.29,4,14.11-7.48,11.32-14.42-13.81-12.28-18.65-31.43-20-53.29a10,10,0,0,0-11.86-5.54h0C59.67,376.07,56.53,380.94,57.68,385.77Z"/><path class="cls-7" d="M96.35,429.18c1.16,4.89,2.67,15.7-5.51,19.62a4.61,4.61,0,0,1-3.86,0l-2.5-1.12a4.67,4.67,0,0,1-2.14-6.58,44.32,44.32,0,0,0,4.87-11.77,4.68,4.68,0,0,1,6.18-3.45h0A4.64,4.64,0,0,1,96.35,429.18Z"/><path class="cls-32" d="M109.37,409.15l-13.45-10a2.39,2.39,0,0,1-.54-2.91l13.18-26.75a1.59,1.59,0,0,1,2.37-.79l13.38,9.76a2.38,2.38,0,0,1,.53,2.91L111.72,408c-.33.67-.67.76-1.35.92Z"/><path class="cls-32" d="M110.92,382.11s-16,15.12-15.54,14.1l13.19-27.67,1.26-.13a1.44,1.44,0,0,1,1.1.26l13.38,9.76a2,2,0,0,1,.75,1.25Z"/><path class="cls-3" d="M108,409l-13.34-9.75a2.38,2.38,0,0,1-.5-2.9l13.19-26.75a1.56,1.56,0,0,1,2.34-.8L123,378.54a2.36,2.36,0,0,1,.48,2.9l-13.18,26.75A1.53,1.53,0,0,1,108,409Z"/><path class="cls-33" d="M123,383.57l-.75,1.52c0,.11,0,.17.13.14v0a.47.47,0,0,0,.27-.25l.75-1.53c.06-.11,0-.16-.08-.13h0A.49.49,0,0,0,123,383.57Z"/><path class="cls-33" d="M121.66,386.24l-.75,1.53c0,.11,0,.17.14.14l0,0a.44.44,0,0,0,.27-.26l.75-1.53c.06-.1,0-.16-.08-.13v0A.53.53,0,0,0,121.66,386.24Z"/><path class="cls-25" d="M110.09,404.58,97,395l11.55-23.59,13,9.52-11.66,23C109.8,404.1,110.27,404.71,110.09,404.58Z"/><path class="cls-34" d="M117.9,377l-4.13-3a.43.43,0,0,1-.1-.52h0a.29.29,0,0,1,.43-.15l4.13,3a.44.44,0,0,1,.1.53h0A.29.29,0,0,1,117.9,377Z"/><path class="cls-30" d="M114.7,405.24l1.6-3.35c-1.29,0-2.79,5.24-2.76,4.17l0-14.9a2.18,2.18,0,0,1,2.4-1.88h0a2.17,2.17,0,0,1,2.29,2l-.2,7.37C118.05,399.71,116,405.27,114.7,405.24Z"/><path class="cls-7" d="M430.7,439.33,364.32,403a4.8,4.8,0,0,1-2.55-4.24l.3-43.07a2.89,2.89,0,0,1,4.29-2.36l66,36.16a4.7,4.7,0,0,1,2.5,4.15l-.3,43.58A2.61,2.61,0,0,1,430.7,439.33Z"/><path class="cls-35" d="M371.35,406.86l9.3-9.37a4.54,4.54,0,0,1,7.28,1.06l8.41,18.05,10.08-13.16c2.11-2.75,6.57-2.23,7.76.91l12.4,32.76Z"/><path class="cls-8" d="M387.82,378.82c0,3-2,4.43-4.42,3.11s-4.36-4.87-4.34-7.91,2-4.42,4.42-3.1S387.84,375.79,387.82,378.82Z"/><path class="cls-7" d="M541.52,169.17,475.62,131a5,5,0,0,1-2.52-4.34l.43-43.57a2.82,2.82,0,0,1,4.27-2.3l65.54,38a4.84,4.84,0,0,1,2.47,4.24l-.43,44.1A2.55,2.55,0,0,1,541.52,169.17Z"/><polygon class="cls-19" points="289.98 282 439.71 368.45 439.71 119.55 289.98 33.1 289.98 282"/><path class="cls-3" d="M305.66,198.2c.72,34.71,25.8,76.32,56,92.95s54.15,2,53.43-32.73-25.8-76.32-56-93S304.94,163.5,305.66,198.2Zm91.42,50.3c.48,23.27-15.56,33.1-35.83,21.95s-37.08-39.06-37.56-62.33,15.56-33.1,35.83-22S396.6,225.23,397.08,248.5Z"/><path class="cls-8" d="M359.09,165.47c-18.5-10.17-34.62-8.62-44.2,2.07l15.19,19.79c6.45-7,17.16-7.91,29.44-1.16,16.77,9.23,31.18,29.94,35.92,50l17.4,4.66C406,210.67,384.33,179.36,359.09,165.47Z"/><path class="cls-7" d="M320.26,247.39l13.46-5.85c-6-10.7-9.81-22.56-10-33.42-.21-9.83,2.55-17.24,7.31-21.71l-14.11-20.89c-7.31,6.63-11.54,17.81-11.23,32.68C306,214.17,311.49,231.6,320.26,247.39Z"/><path class="cls-7" d="M336,139.32l-17.74-10.24c-2.89-1.66-5.23-6.14-5.23-10h0c0-3.85,2.34-5.62,5.23-4L336,125.38c2.89,1.66,5.23,6.14,5.23,10h0C341.26,139.22,338.92,141,336,139.32Z"/><path class="cls-7" d="M372.74,157.35,355,147.11c-2.89-1.67-5.23-6.14-5.23-10h0c0-3.85,2.34-5.62,5.23-4l17.74,10.24c2.88,1.67,5.23,6.14,5.23,10h0C378,157.25,375.62,159,372.74,157.35Z"/><path class="cls-7" d="M409.44,177.62l-17.73-10.24c-2.89-1.67-5.23-6.14-5.23-10h0c0-3.86,2.34-5.63,5.23-4l17.73,10.24c2.89,1.67,5.23,6.14,5.23,10h0C414.67,177.51,412.33,179.28,409.44,177.62Z"/><path class="cls-36" d="M418.24,144.72,319.3,87.59c-2.49-1.44-4.51-5.29-4.51-8.61h0c0-3.32,2-4.85,4.51-3.41l98.94,57.12c2.49,1.44,4.51,5.3,4.51,8.62h0C422.75,144.63,420.73,146.15,418.24,144.72Z"/><path class="cls-37" d="M519.19,640c-26.28-15.76-69.29-16.47-96.08-1.59s-27.2,39.71-.92,55.47,68.82,16.48,96.1,1.91C548.28,679.76,545.46,655.75,519.19,640Z"/><path class="cls-38" d="M497.51,636.52c-24.95-15-65.81-15.64-91.25-1.51s-25.83,37.71-.87,52.68,65.36,15.65,91.27,1.81C525.14,674.28,522.46,651.49,497.51,636.52Z"/><path class="cls-39" d="M496.64,621c-25-15-65.81-15.64-91.25-1.51s-25.83,37.71-.88,52.68,65.36,15.66,91.27,1.81C524.27,658.77,521.59,636,496.64,621Z"/><polyline class="cls-40" points="434.92 631.28 427.52 656.7 487.48 643.13"/><polygon class="cls-17" points="533.56 133.51 483.58 104.65 483.58 95.78 533.56 124.64 533.56 133.51"/><polygon class="cls-17" points="533.56 154.14 483.58 125.29 483.58 116.42 533.56 145.27 533.56 154.14"/></g></g></svg>